<?xml version="1.0" encoding="utf-8" standalone="no"?>
<!DOCTYPE svg PUBLIC "-//W3C//DTD SVG 1.1//EN"
  "http://www.w3.org/Graphics/SVG/1.1/DTD/svg11.dtd">
<svg xmlns:xlink="http://www.w3.org/1999/xlink" width="491.265231pt" height="140.256pt" viewBox="0 0 491.265231 140.256" xmlns="http://www.w3.org/2000/svg" version="1.1">
 <metadata>
  <rdf:RDF xmlns:dc="http://purl.org/dc/elements/1.1/" xmlns:cc="http://creativecommons.org/ns#" xmlns:rdf="http://www.w3.org/1999/02/22-rdf-syntax-ns#">
   <cc:Work>
    <dc:type rdf:resource="http://purl.org/dc/dcmitype/StillImage"/>
    <dc:date>1980-01-01T00:00:00+00:00</dc:date>
    <dc:format>image/svg+xml</dc:format>
    <dc:creator>
     <cc:Agent>
      <dc:title>Matplotlib v3.9.2, https://matplotlib.org/</dc:title>
     </cc:Agent>
    </dc:creator>
   </cc:Work>
  </rdf:RDF>
 </metadata>
 <defs>
  <style type="text/css">*{stroke-linejoin: round; stroke-linecap: butt}</style>
 </defs>
 <g id="figure_1">
  <g id="patch_1">
   <path d="M 0 140.256 
L 491.265231 140.256 
L 491.265231 0 
L 0 0 
z
" style="fill: #ffffff"/>
  </g>
  <g id="axes_1">
   <g id="patch_2">
    <path d="M 26.199231 136.656 
L 487.665231 136.656 
L 487.665231 3.6 
L 26.199231 3.6 
z
" style="fill: #ffffff"/>
   </g>
   <g id="matplotlib.axis_1">
    <g id="xtick_1">
     <g id="line2d_1">
      <path d="M 47.174958 136.656 
L 47.174958 3.6 
" clip-path="url(#p492e12150e)" style="fill: none; stroke: #b0b0b0; stroke-width: 0.5; stroke-linecap: square"/>
     </g>
     <g id="line2d_2">
      <defs>
       <path id="mb7ed38dcd1" d="M 0 0 
L 0 -3 
" style="stroke: #000000; stroke-width: 0.5"/>
      </defs>
      <g>
       <use xlink:href="#mb7ed38dcd1" x="47.174958" y="136.656" style="stroke: #000000; stroke-width: 0.5"/>
      </g>
     </g>
     <g id="line2d_3">
      <defs>
       <path id="m79c8f82966" d="M 0 0 
L 0 3 
" style="stroke: #000000; stroke-width: 0.5"/>
      </defs>
      <g>
       <use xlink:href="#m79c8f82966" x="47.174958" y="3.6" style="stroke: #000000; stroke-width: 0.5"/>
      </g>
     </g>
    </g>
    <g id="xtick_2">
     <g id="line2d_4">
      <path d="M 109.582081 136.656 
L 109.582081 3.6 
" clip-path="url(#p492e12150e)" style="fill: none; stroke: #b0b0b0; stroke-width: 0.5; stroke-linecap: square"/>
     </g>
     <g id="line2d_5">
      <g>
       <use xlink:href="#mb7ed38dcd1" x="109.582081" y="136.656" style="stroke: #000000; stroke-width: 0.5"/>
      </g>
     </g>
     <g id="line2d_6">
      <g>
       <use xlink:href="#m79c8f82966" x="109.582081" y="3.6" style="stroke: #000000; stroke-width: 0.5"/>
      </g>
     </g>
    </g>
    <g id="xtick_3">
     <g id="line2d_7">
      <path d="M 171.989203 136.656 
L 171.989203 3.6 
" clip-path="url(#p492e12150e)" style="fill: none; stroke: #b0b0b0; stroke-width: 0.5; stroke-linecap: square"/>
     </g>
     <g id="line2d_8">
      <g>
       <use xlink:href="#mb7ed38dcd1" x="171.989203" y="136.656" style="stroke: #000000; stroke-width: 0.5"/>
      </g>
     </g>
     <g id="line2d_9">
      <g>
       <use xlink:href="#m79c8f82966" x="171.989203" y="3.6" style="stroke: #000000; stroke-width: 0.5"/>
      </g>
     </g>
    </g>
    <g id="xtick_4">
     <g id="line2d_10">
      <path d="M 234.396326 136.656 
L 234.396326 3.6 
" clip-path="url(#p492e12150e)" style="fill: none; stroke: #b0b0b0; stroke-width: 0.5; stroke-linecap: square"/>
     </g>
     <g id="line2d_11">
      <g>
       <use xlink:href="#mb7ed38dcd1" x="234.396326" y="136.656" style="stroke: #000000; stroke-width: 0.5"/>
      </g>
     </g>
     <g id="line2d_12">
      <g>
       <use xlink:href="#m79c8f82966" x="234.396326" y="3.6" style="stroke: #000000; stroke-width: 0.5"/>
      </g>
     </g>
    </g>
    <g id="xtick_5">
     <g id="line2d_13">
      <path d="M 296.803448 136.656 
L 296.803448 3.6 
" clip-path="url(#p492e12150e)" style="fill: none; stroke: #b0b0b0; stroke-width: 0.5; stroke-linecap: square"/>
     </g>
     <g id="line2d_14">
      <g>
       <use xlink:href="#mb7ed38dcd1" x="296.803448" y="136.656" style="stroke: #000000; stroke-width: 0.5"/>
      </g>
     </g>
     <g id="line2d_15">
      <g>
       <use xlink:href="#m79c8f82966" x="296.803448" y="3.6" style="stroke: #000000; stroke-width: 0.5"/>
      </g>
     </g>
    </g>
    <g id="xtick_6">
     <g id="line2d_16">
      <path d="M 359.210571 136.656 
L 359.210571 3.6 
" clip-path="url(#p492e12150e)" style="fill: none; stroke: #b0b0b0; stroke-width: 0.5; stroke-linecap: square"/>
     </g>
     <g id="line2d_17">
      <g>
       <use xlink:href="#mb7ed38dcd1" x="359.210571" y="136.656" style="stroke: #000000; stroke-width: 0.5"/>
      </g>
     </g>
     <g id="line2d_18">
      <g>
       <use xlink:href="#m79c8f82966" x="359.210571" y="3.6" style="stroke: #000000; stroke-width: 0.5"/>
      </g>
     </g>
    </g>
    <g id="xtick_7">
     <g id="line2d_19">
      <path d="M 421.617693 136.656 
L 421.617693 3.6 
" clip-path="url(#p492e12150e)" style="fill: none; stroke: #b0b0b0; stroke-width: 0.5; stroke-linecap: square"/>
     </g>
     <g id="line2d_20">
      <g>
       <use xlink:href="#mb7ed38dcd1" x="421.617693" y="136.656" style="stroke: #000000; stroke-width: 0.5"/>
      </g>
     </g>
     <g id="line2d_21">
      <g>
       <use xlink:href="#m79c8f82966" x="421.617693" y="3.6" style="stroke: #000000; stroke-width: 0.5"/>
      </g>
     </g>
    </g>
    <g id="xtick_8">
     <g id="line2d_22">
      <path d="M 484.024816 136.656 
L 484.024816 3.6 
" clip-path="url(#p492e12150e)" style="fill: none; stroke: #b0b0b0; stroke-width: 0.5; stroke-linecap: square"/>
     </g>
     <g id="line2d_23">
      <g>
       <use xlink:href="#mb7ed38dcd1" x="484.024816" y="136.656" style="stroke: #000000; stroke-width: 0.5"/>
      </g>
     </g>
     <g id="line2d_24">
      <g>
       <use xlink:href="#m79c8f82966" x="484.024816" y="3.6" style="stroke: #000000; stroke-width: 0.5"/>
      </g>
     </g>
    </g>
    <g id="xtick_9">
     <g id="line2d_25">
      <defs>
       <path id="m4905b5523b" d="M 0 0 
L 0 -1.5 
" style="stroke: #000000; stroke-width: 0.5"/>
      </defs>
      <g>
       <use xlink:href="#m4905b5523b" x="34.693534" y="136.656" style="stroke: #000000; stroke-width: 0.5"/>
      </g>
     </g>
     <g id="line2d_26">
      <defs>
       <path id="m10447da534" d="M 0 0 
L 0 1.5 
" style="stroke: #000000; stroke-width: 0.5"/>
      </defs>
      <g>
       <use xlink:href="#m10447da534" x="34.693534" y="3.6" style="stroke: #000000; stroke-width: 0.5"/>
      </g>
     </g>
    </g>
    <g id="xtick_10">
     <g id="line2d_27">
      <g>
       <use xlink:href="#m4905b5523b" x="59.656383" y="136.656" style="stroke: #000000; stroke-width: 0.5"/>
      </g>
     </g>
     <g id="line2d_28">
      <g>
       <use xlink:href="#m10447da534" x="59.656383" y="3.6" style="stroke: #000000; stroke-width: 0.5"/>
      </g>
     </g>
    </g>
    <g id="xtick_11">
     <g id="line2d_29">
      <g>
       <use xlink:href="#m4905b5523b" x="72.137807" y="136.656" style="stroke: #000000; stroke-width: 0.5"/>
      </g>
     </g>
     <g id="line2d_30">
      <g>
       <use xlink:href="#m10447da534" x="72.137807" y="3.6" style="stroke: #000000; stroke-width: 0.5"/>
      </g>
     </g>
    </g>
    <g id="xtick_12">
     <g id="line2d_31">
      <g>
       <use xlink:href="#m4905b5523b" x="84.619232" y="136.656" style="stroke: #000000; stroke-width: 0.5"/>
      </g>
     </g>
     <g id="line2d_32">
      <g>
       <use xlink:href="#m10447da534" x="84.619232" y="3.6" style="stroke: #000000; stroke-width: 0.5"/>
      </g>
     </g>
    </g>
    <g id="xtick_13">
     <g id="line2d_33">
      <g>
       <use xlink:href="#m4905b5523b" x="97.100656" y="136.656" style="stroke: #000000; stroke-width: 0.5"/>
      </g>
     </g>
     <g id="line2d_34">
      <g>
       <use xlink:href="#m10447da534" x="97.100656" y="3.6" style="stroke: #000000; stroke-width: 0.5"/>
      </g>
     </g>
    </g>
    <g id="xtick_14">
     <g id="line2d_35">
      <g>
       <use xlink:href="#m4905b5523b" x="122.063505" y="136.656" style="stroke: #000000; stroke-width: 0.5"/>
      </g>
     </g>
     <g id="line2d_36">
      <g>
       <use xlink:href="#m10447da534" x="122.063505" y="3.6" style="stroke: #000000; stroke-width: 0.5"/>
      </g>
     </g>
    </g>
    <g id="xtick_15">
     <g id="line2d_37">
      <g>
       <use xlink:href="#m4905b5523b" x="134.54493" y="136.656" style="stroke: #000000; stroke-width: 0.5"/>
      </g>
     </g>
     <g id="line2d_38">
      <g>
       <use xlink:href="#m10447da534" x="134.54493" y="3.6" style="stroke: #000000; stroke-width: 0.5"/>
      </g>
     </g>
    </g>
    <g id="xtick_16">
     <g id="line2d_39">
      <g>
       <use xlink:href="#m4905b5523b" x="147.026354" y="136.656" style="stroke: #000000; stroke-width: 0.5"/>
      </g>
     </g>
     <g id="line2d_40">
      <g>
       <use xlink:href="#m10447da534" x="147.026354" y="3.6" style="stroke: #000000; stroke-width: 0.5"/>
      </g>
     </g>
    </g>
    <g id="xtick_17">
     <g id="line2d_41">
      <g>
       <use xlink:href="#m4905b5523b" x="159.507779" y="136.656" style="stroke: #000000; stroke-width: 0.5"/>
      </g>
     </g>
     <g id="line2d_42">
      <g>
       <use xlink:href="#m10447da534" x="159.507779" y="3.6" style="stroke: #000000; stroke-width: 0.5"/>
      </g>
     </g>
    </g>
    <g id="xtick_18">
     <g id="line2d_43">
      <g>
       <use xlink:href="#m4905b5523b" x="184.470628" y="136.656" style="stroke: #000000; stroke-width: 0.5"/>
      </g>
     </g>
     <g id="line2d_44">
      <g>
       <use xlink:href="#m10447da534" x="184.470628" y="3.6" style="stroke: #000000; stroke-width: 0.5"/>
      </g>
     </g>
    </g>
    <g id="xtick_19">
     <g id="line2d_45">
      <g>
       <use xlink:href="#m4905b5523b" x="196.952052" y="136.656" style="stroke: #000000; stroke-width: 0.5"/>
      </g>
     </g>
     <g id="line2d_46">
      <g>
       <use xlink:href="#m10447da534" x="196.952052" y="3.6" style="stroke: #000000; stroke-width: 0.5"/>
      </g>
     </g>
    </g>
    <g id="xtick_20">
     <g id="line2d_47">
      <g>
       <use xlink:href="#m4905b5523b" x="209.433477" y="136.656" style="stroke: #000000; stroke-width: 0.5"/>
      </g>
     </g>
     <g id="line2d_48">
      <g>
       <use xlink:href="#m10447da534" x="209.433477" y="3.6" style="stroke: #000000; stroke-width: 0.5"/>
      </g>
     </g>
    </g>
    <g id="xtick_21">
     <g id="line2d_49">
      <g>
       <use xlink:href="#m4905b5523b" x="221.914901" y="136.656" style="stroke: #000000; stroke-width: 0.5"/>
      </g>
     </g>
     <g id="line2d_50">
      <g>
       <use xlink:href="#m10447da534" x="221.914901" y="3.6" style="stroke: #000000; stroke-width: 0.5"/>
      </g>
     </g>
    </g>
    <g id="xtick_22">
     <g id="line2d_51">
      <g>
       <use xlink:href="#m4905b5523b" x="246.87775" y="136.656" style="stroke: #000000; stroke-width: 0.5"/>
      </g>
     </g>
     <g id="line2d_52">
      <g>
       <use xlink:href="#m10447da534" x="246.87775" y="3.6" style="stroke: #000000; stroke-width: 0.5"/>
      </g>
     </g>
    </g>
    <g id="xtick_23">
     <g id="line2d_53">
      <g>
       <use xlink:href="#m4905b5523b" x="259.359175" y="136.656" style="stroke: #000000; stroke-width: 0.5"/>
      </g>
     </g>
     <g id="line2d_54">
      <g>
       <use xlink:href="#m10447da534" x="259.359175" y="3.6" style="stroke: #000000; stroke-width: 0.5"/>
      </g>
     </g>
    </g>
    <g id="xtick_24">
     <g id="line2d_55">
      <g>
       <use xlink:href="#m4905b5523b" x="271.840599" y="136.656" style="stroke: #000000; stroke-width: 0.5"/>
      </g>
     </g>
     <g id="line2d_56">
      <g>
       <use xlink:href="#m10447da534" x="271.840599" y="3.6" style="stroke: #000000; stroke-width: 0.5"/>
      </g>
     </g>
    </g>
    <g id="xtick_25">
     <g id="line2d_57">
      <g>
       <use xlink:href="#m4905b5523b" x="284.322024" y="136.656" style="stroke: #000000; stroke-width: 0.5"/>
      </g>
     </g>
     <g id="line2d_58">
      <g>
       <use xlink:href="#m10447da534" x="284.322024" y="3.6" style="stroke: #000000; stroke-width: 0.5"/>
      </g>
     </g>
    </g>
    <g id="xtick_26">
     <g id="line2d_59">
      <g>
       <use xlink:href="#m4905b5523b" x="309.284873" y="136.656" style="stroke: #000000; stroke-width: 0.5"/>
      </g>
     </g>
     <g id="line2d_60">
      <g>
       <use xlink:href="#m10447da534" x="309.284873" y="3.6" style="stroke: #000000; stroke-width: 0.5"/>
      </g>
     </g>
    </g>
    <g id="xtick_27">
     <g id="line2d_61">
      <g>
       <use xlink:href="#m4905b5523b" x="321.766297" y="136.656" style="stroke: #000000; stroke-width: 0.5"/>
      </g>
     </g>
     <g id="line2d_62">
      <g>
       <use xlink:href="#m10447da534" x="321.766297" y="3.6" style="stroke: #000000; stroke-width: 0.5"/>
      </g>
     </g>
    </g>
    <g id="xtick_28">
     <g id="line2d_63">
      <g>
       <use xlink:href="#m4905b5523b" x="334.247722" y="136.656" style="stroke: #000000; stroke-width: 0.5"/>
      </g>
     </g>
     <g id="line2d_64">
      <g>
       <use xlink:href="#m10447da534" x="334.247722" y="3.6" style="stroke: #000000; stroke-width: 0.5"/>
      </g>
     </g>
    </g>
    <g id="xtick_29">
     <g id="line2d_65">
      <g>
       <use xlink:href="#m4905b5523b" x="346.729146" y="136.656" style="stroke: #000000; stroke-width: 0.5"/>
      </g>
     </g>
     <g id="line2d_66">
      <g>
       <use xlink:href="#m10447da534" x="346.729146" y="3.6" style="stroke: #000000; stroke-width: 0.5"/>
      </g>
     </g>
    </g>
    <g id="xtick_30">
     <g id="line2d_67">
      <g>
       <use xlink:href="#m4905b5523b" x="371.691995" y="136.656" style="stroke: #000000; stroke-width: 0.5"/>
      </g>
     </g>
     <g id="line2d_68">
      <g>
       <use xlink:href="#m10447da534" x="371.691995" y="3.6" style="stroke: #000000; stroke-width: 0.5"/>
      </g>
     </g>
    </g>
    <g id="xtick_31">
     <g id="line2d_69">
      <g>
       <use xlink:href="#m4905b5523b" x="384.17342" y="136.656" style="stroke: #000000; stroke-width: 0.5"/>
      </g>
     </g>
     <g id="line2d_70">
      <g>
       <use xlink:href="#m10447da534" x="384.17342" y="3.6" style="stroke: #000000; stroke-width: 0.5"/>
      </g>
     </g>
    </g>
    <g id="xtick_32">
     <g id="line2d_71">
      <g>
       <use xlink:href="#m4905b5523b" x="396.654844" y="136.656" style="stroke: #000000; stroke-width: 0.5"/>
      </g>
     </g>
     <g id="line2d_72">
      <g>
       <use xlink:href="#m10447da534" x="396.654844" y="3.6" style="stroke: #000000; stroke-width: 0.5"/>
      </g>
     </g>
    </g>
    <g id="xtick_33">
     <g id="line2d_73">
      <g>
       <use xlink:href="#m4905b5523b" x="409.136269" y="136.656" style="stroke: #000000; stroke-width: 0.5"/>
      </g>
     </g>
     <g id="line2d_74">
      <g>
       <use xlink:href="#m10447da534" x="409.136269" y="3.6" style="stroke: #000000; stroke-width: 0.5"/>
      </g>
     </g>
    </g>
    <g id="xtick_34">
     <g id="line2d_75">
      <g>
       <use xlink:href="#m4905b5523b" x="434.099118" y="136.656" style="stroke: #000000; stroke-width: 0.5"/>
      </g>
     </g>
     <g id="line2d_76">
      <g>
       <use xlink:href="#m10447da534" x="434.099118" y="3.6" style="stroke: #000000; stroke-width: 0.5"/>
      </g>
     </g>
    </g>
    <g id="xtick_35">
     <g id="line2d_77">
      <g>
       <use xlink:href="#m4905b5523b" x="446.580542" y="136.656" style="stroke: #000000; stroke-width: 0.5"/>
      </g>
     </g>
     <g id="line2d_78">
      <g>
       <use xlink:href="#m10447da534" x="446.580542" y="3.6" style="stroke: #000000; stroke-width: 0.5"/>
      </g>
     </g>
    </g>
    <g id="xtick_36">
     <g id="line2d_79">
      <g>
       <use xlink:href="#m4905b5523b" x="459.061967" y="136.656" style="stroke: #000000; stroke-width: 0.5"/>
      </g>
     </g>
     <g id="line2d_80">
      <g>
       <use xlink:href="#m10447da534" x="459.061967" y="3.6" style="stroke: #000000; stroke-width: 0.5"/>
      </g>
     </g>
    </g>
    <g id="xtick_37">
     <g id="line2d_81">
      <g>
       <use xlink:href="#m4905b5523b" x="471.543391" y="136.656" style="stroke: #000000; stroke-width: 0.5"/>
      </g>
     </g>
     <g id="line2d_82">
      <g>
       <use xlink:href="#m10447da534" x="471.543391" y="3.6" style="stroke: #000000; stroke-width: 0.5"/>
      </g>
     </g>
    </g>
   </g>
   <g id="matplotlib.axis_2">
    <g id="ytick_1">
     <g id="line2d_83">
      <path d="M 26.199231 119.311116 
L 487.665231 119.311116 
" clip-path="url(#p492e12150e)" style="fill: none; stroke: #b0b0b0; stroke-width: 0.5; stroke-linecap: square"/>
     </g>
     <g id="line2d_84">
      <defs>
       <path id="m6fd8469e07" d="M 0 0 
L 3 0 
" style="stroke: #000000; stroke-width: 0.5"/>
      </defs>
      <g>
       <use xlink:href="#m6fd8469e07" x="26.199231" y="119.311116" style="stroke: #000000; stroke-width: 0.5"/>
      </g>
     </g>
     <g id="line2d_85">
      <defs>
       <path id="m7acd7f120e" d="M 0 0 
L -3 0 
" style="stroke: #000000; stroke-width: 0.5"/>
      </defs>
      <g>
       <use xlink:href="#m7acd7f120e" x="487.665231" y="119.311116" style="stroke: #000000; stroke-width: 0.5"/>
      </g>
     </g>
     <g id="text_1">
      <!-- $\mathdefault{0}$ -->
      <g transform="translate(18.714175 122.012944) scale(0.08 -0.08)">
       <defs>
        <path id="NimbusRomNo9L-Regu-30" d="M 1626 4352 
C 1274 4352 1005 4243 768 4019 
C 397 3661 154 2924 154 2176 
C 154 1478 365 729 666 371 
C 902 89 1229 -64 1600 -64 
C 1926 -64 2202 44 2432 268 
C 2803 620 3046 1363 3046 2137 
C 3046 3449 2464 4352 1626 4352 
z
M 1606 4185 
C 2144 4185 2432 3462 2432 2124 
C 2432 787 2150 102 1600 102 
C 1050 102 768 787 768 2118 
C 768 3475 1056 4185 1606 4185 
z
" transform="scale(0.015625)"/>
       </defs>
       <use xlink:href="#NimbusRomNo9L-Regu-30" transform="scale(0.996264)"/>
      </g>
     </g>
    </g>
    <g id="ytick_2">
     <g id="line2d_86">
      <path d="M 26.199231 101.659735 
L 487.665231 101.659735 
" clip-path="url(#p492e12150e)" style="fill: none; stroke: #b0b0b0; stroke-width: 0.5; stroke-linecap: square"/>
     </g>
     <g id="line2d_87">
      <g>
       <use xlink:href="#m6fd8469e07" x="26.199231" y="101.659735" style="stroke: #000000; stroke-width: 0.5"/>
      </g>
     </g>
     <g id="line2d_88">
      <g>
       <use xlink:href="#m7acd7f120e" x="487.665231" y="101.659735" style="stroke: #000000; stroke-width: 0.5"/>
      </g>
     </g>
     <g id="text_2">
      <!-- $\mathdefault{5}$ -->
      <g transform="translate(18.714175 104.361563) scale(0.08 -0.08)">
       <defs>
        <path id="NimbusRomNo9L-Regu-35" d="M 1158 3718 
L 2413 3718 
C 2515 3718 2541 3731 2560 3775 
L 2803 4345 
L 2746 4390 
C 2650 4256 2586 4224 2451 4224 
L 1114 4224 
L 416 2717 
C 410 2705 410 2698 410 2686 
C 410 2654 435 2635 486 2635 
C 691 2635 947 2591 1210 2508 
C 1946 2274 2285 1882 2285 1255 
C 2285 647 1894 172 1395 172 
C 1267 172 1158 217 966 356 
C 762 502 614 565 480 565 
C 294 565 205 489 205 331 
C 205 89 506 -64 986 -64 
C 1523 -64 1984 108 2304 432 
C 2598 717 2733 1078 2733 1559 
C 2733 2015 2611 2306 2291 2622 
C 2010 2901 1645 3047 890 3180 
L 1158 3718 
z
" transform="scale(0.015625)"/>
       </defs>
       <use xlink:href="#NimbusRomNo9L-Regu-35" transform="scale(0.996264)"/>
      </g>
     </g>
    </g>
    <g id="ytick_3">
     <g id="line2d_89">
      <path d="M 26.199231 84.008354 
L 487.665231 84.008354 
" clip-path="url(#p492e12150e)" style="fill: none; stroke: #b0b0b0; stroke-width: 0.5; stroke-linecap: square"/>
     </g>
     <g id="line2d_90">
      <g>
       <use xlink:href="#m6fd8469e07" x="26.199231" y="84.008354" style="stroke: #000000; stroke-width: 0.5"/>
      </g>
     </g>
     <g id="line2d_91">
      <g>
       <use xlink:href="#m7acd7f120e" x="487.665231" y="84.008354" style="stroke: #000000; stroke-width: 0.5"/>
      </g>
     </g>
     <g id="text_3">
      <!-- $\mathdefault{10}$ -->
      <g transform="translate(14.729119 86.710182) scale(0.08 -0.08)">
       <defs>
        <path id="NimbusRomNo9L-Regu-31" d="M 1862 4352 
L 710 3776 
L 710 3686 
C 787 3718 858 3743 883 3756 
C 998 3801 1107 3826 1171 3826 
C 1306 3826 1363 3731 1363 3525 
L 1363 599 
C 1363 386 1312 238 1210 179 
C 1114 121 1024 102 755 96 
L 755 0 
L 2522 0 
L 2522 96 
C 2016 102 1914 167 1914 477 
L 1914 4339 
L 1862 4352 
z
" transform="scale(0.015625)"/>
       </defs>
       <use xlink:href="#NimbusRomNo9L-Regu-31" transform="scale(0.996264)"/>
       <use xlink:href="#NimbusRomNo9L-Regu-30" transform="translate(49.8132 0) scale(0.996264)"/>
      </g>
     </g>
    </g>
    <g id="ytick_4">
     <g id="line2d_92">
      <path d="M 26.199231 66.356973 
L 487.665231 66.356973 
" clip-path="url(#p492e12150e)" style="fill: none; stroke: #b0b0b0; stroke-width: 0.5; stroke-linecap: square"/>
     </g>
     <g id="line2d_93">
      <g>
       <use xlink:href="#m6fd8469e07" x="26.199231" y="66.356973" style="stroke: #000000; stroke-width: 0.5"/>
      </g>
     </g>
     <g id="line2d_94">
      <g>
       <use xlink:href="#m7acd7f120e" x="487.665231" y="66.356973" style="stroke: #000000; stroke-width: 0.5"/>
      </g>
     </g>
     <g id="text_4">
      <!-- $\mathdefault{15}$ -->
      <g transform="translate(14.729119 69.058801) scale(0.08 -0.08)">
       <use xlink:href="#NimbusRomNo9L-Regu-31" transform="scale(0.996264)"/>
       <use xlink:href="#NimbusRomNo9L-Regu-35" transform="translate(49.8132 0) scale(0.996264)"/>
      </g>
     </g>
    </g>
    <g id="ytick_5">
     <g id="line2d_95">
      <path d="M 26.199231 48.705592 
L 487.665231 48.705592 
" clip-path="url(#p492e12150e)" style="fill: none; stroke: #b0b0b0; stroke-width: 0.5; stroke-linecap: square"/>
     </g>
     <g id="line2d_96">
      <g>
       <use xlink:href="#m6fd8469e07" x="26.199231" y="48.705592" style="stroke: #000000; stroke-width: 0.5"/>
      </g>
     </g>
     <g id="line2d_97">
      <g>
       <use xlink:href="#m7acd7f120e" x="487.665231" y="48.705592" style="stroke: #000000; stroke-width: 0.5"/>
      </g>
     </g>
     <g id="text_5">
      <!-- $\mathdefault{20}$ -->
      <g transform="translate(14.729119 51.40742) scale(0.08 -0.08)">
       <defs>
        <path id="NimbusRomNo9L-Regu-32" d="M 3040 879 
L 2957 912 
C 2720 544 2637 486 2349 486 
L 819 486 
L 1894 1621 
C 2464 2221 2714 2711 2714 3214 
C 2714 3858 2195 4352 1530 4352 
C 1178 4352 845 4211 608 3955 
C 403 3736 307 3530 198 3072 
L 333 3039 
C 589 3671 819 3878 1261 3878 
C 1798 3878 2163 3510 2163 2969 
C 2163 2466 1869 1866 1331 1292 
L 192 76 
L 192 0 
L 2688 0 
L 3040 879 
z
" transform="scale(0.015625)"/>
       </defs>
       <use xlink:href="#NimbusRomNo9L-Regu-32" transform="scale(0.996264)"/>
       <use xlink:href="#NimbusRomNo9L-Regu-30" transform="translate(49.8132 0) scale(0.996264)"/>
      </g>
     </g>
    </g>
    <g id="ytick_6">
     <g id="line2d_98">
      <path d="M 26.199231 31.054211 
L 487.665231 31.054211 
" clip-path="url(#p492e12150e)" style="fill: none; stroke: #b0b0b0; stroke-width: 0.5; stroke-linecap: square"/>
     </g>
     <g id="line2d_99">
      <g>
       <use xlink:href="#m6fd8469e07" x="26.199231" y="31.054211" style="stroke: #000000; stroke-width: 0.5"/>
      </g>
     </g>
     <g id="line2d_100">
      <g>
       <use xlink:href="#m7acd7f120e" x="487.665231" y="31.054211" style="stroke: #000000; stroke-width: 0.5"/>
      </g>
     </g>
     <g id="text_6">
      <!-- $\mathdefault{25}$ -->
      <g transform="translate(14.729119 33.756039) scale(0.08 -0.08)">
       <use xlink:href="#NimbusRomNo9L-Regu-32" transform="scale(0.996264)"/>
       <use xlink:href="#NimbusRomNo9L-Regu-35" transform="translate(49.8132 0) scale(0.996264)"/>
      </g>
     </g>
    </g>
    <g id="ytick_7">
     <g id="line2d_101">
      <path d="M 26.199231 13.40283 
L 487.665231 13.40283 
" clip-path="url(#p492e12150e)" style="fill: none; stroke: #b0b0b0; stroke-width: 0.5; stroke-linecap: square"/>
     </g>
     <g id="line2d_102">
      <g>
       <use xlink:href="#m6fd8469e07" x="26.199231" y="13.40283" style="stroke: #000000; stroke-width: 0.5"/>
      </g>
     </g>
     <g id="line2d_103">
      <g>
       <use xlink:href="#m7acd7f120e" x="487.665231" y="13.40283" style="stroke: #000000; stroke-width: 0.5"/>
      </g>
     </g>
     <g id="text_7">
      <!-- $\mathdefault{30}$ -->
      <g transform="translate(14.729119 16.104658) scale(0.08 -0.08)">
       <defs>
        <path id="NimbusRomNo9L-Regu-33" d="M 979 2137 
C 1357 2137 1504 2124 1658 2067 
C 2054 1926 2304 1561 2304 1120 
C 2304 582 1939 166 1466 166 
C 1293 166 1165 211 928 364 
C 736 480 627 524 518 524 
C 371 524 275 435 275 300 
C 275 76 550 -64 998 -64 
C 1491 -64 1997 102 2298 364 
C 2598 627 2765 998 2765 1427 
C 2765 1753 2662 2054 2477 2252 
C 2349 2393 2227 2470 1946 2592 
C 2387 2892 2547 3129 2547 3475 
C 2547 3993 2138 4352 1549 4352 
C 1229 4352 947 4243 717 4038 
C 525 3865 429 3699 288 3315 
L 384 3289 
C 646 3757 934 3967 1338 3967 
C 1754 3967 2042 3686 2042 3283 
C 2042 3052 1946 2822 1786 2662 
C 1594 2470 1414 2374 979 2220 
L 979 2137 
z
" transform="scale(0.015625)"/>
       </defs>
       <use xlink:href="#NimbusRomNo9L-Regu-33" transform="scale(0.996264)"/>
       <use xlink:href="#NimbusRomNo9L-Regu-30" transform="translate(49.8132 0) scale(0.996264)"/>
      </g>
     </g>
    </g>
    <g id="ytick_8">
     <g id="line2d_104">
      <defs>
       <path id="m1a69500c3a" d="M 0 0 
L 1.5 0 
" style="stroke: #000000; stroke-width: 0.5"/>
      </defs>
      <g>
       <use xlink:href="#m1a69500c3a" x="26.199231" y="133.432221" style="stroke: #000000; stroke-width: 0.5"/>
      </g>
     </g>
     <g id="line2d_105">
      <defs>
       <path id="m2a4abbe418" d="M 0 0 
L -1.5 0 
" style="stroke: #000000; stroke-width: 0.5"/>
      </defs>
      <g>
       <use xlink:href="#m2a4abbe418" x="487.665231" y="133.432221" style="stroke: #000000; stroke-width: 0.5"/>
      </g>
     </g>
    </g>
    <g id="ytick_9">
     <g id="line2d_106">
      <g>
       <use xlink:href="#m1a69500c3a" x="26.199231" y="129.901945" style="stroke: #000000; stroke-width: 0.5"/>
      </g>
     </g>
     <g id="line2d_107">
      <g>
       <use xlink:href="#m2a4abbe418" x="487.665231" y="129.901945" style="stroke: #000000; stroke-width: 0.5"/>
      </g>
     </g>
    </g>
    <g id="ytick_10">
     <g id="line2d_108">
      <g>
       <use xlink:href="#m1a69500c3a" x="26.199231" y="126.371669" style="stroke: #000000; stroke-width: 0.5"/>
      </g>
     </g>
     <g id="line2d_109">
      <g>
       <use xlink:href="#m2a4abbe418" x="487.665231" y="126.371669" style="stroke: #000000; stroke-width: 0.5"/>
      </g>
     </g>
    </g>
    <g id="ytick_11">
     <g id="line2d_110">
      <g>
       <use xlink:href="#m1a69500c3a" x="26.199231" y="122.841392" style="stroke: #000000; stroke-width: 0.5"/>
      </g>
     </g>
     <g id="line2d_111">
      <g>
       <use xlink:href="#m2a4abbe418" x="487.665231" y="122.841392" style="stroke: #000000; stroke-width: 0.5"/>
      </g>
     </g>
    </g>
    <g id="ytick_12">
     <g id="line2d_112">
      <g>
       <use xlink:href="#m1a69500c3a" x="26.199231" y="115.78084" style="stroke: #000000; stroke-width: 0.5"/>
      </g>
     </g>
     <g id="line2d_113">
      <g>
       <use xlink:href="#m2a4abbe418" x="487.665231" y="115.78084" style="stroke: #000000; stroke-width: 0.5"/>
      </g>
     </g>
    </g>
    <g id="ytick_13">
     <g id="line2d_114">
      <g>
       <use xlink:href="#m1a69500c3a" x="26.199231" y="112.250564" style="stroke: #000000; stroke-width: 0.5"/>
      </g>
     </g>
     <g id="line2d_115">
      <g>
       <use xlink:href="#m2a4abbe418" x="487.665231" y="112.250564" style="stroke: #000000; stroke-width: 0.5"/>
      </g>
     </g>
    </g>
    <g id="ytick_14">
     <g id="line2d_116">
      <g>
       <use xlink:href="#m1a69500c3a" x="26.199231" y="108.720288" style="stroke: #000000; stroke-width: 0.5"/>
      </g>
     </g>
     <g id="line2d_117">
      <g>
       <use xlink:href="#m2a4abbe418" x="487.665231" y="108.720288" style="stroke: #000000; stroke-width: 0.5"/>
      </g>
     </g>
    </g>
    <g id="ytick_15">
     <g id="line2d_118">
      <g>
       <use xlink:href="#m1a69500c3a" x="26.199231" y="105.190011" style="stroke: #000000; stroke-width: 0.5"/>
      </g>
     </g>
     <g id="line2d_119">
      <g>
       <use xlink:href="#m2a4abbe418" x="487.665231" y="105.190011" style="stroke: #000000; stroke-width: 0.5"/>
      </g>
     </g>
    </g>
    <g id="ytick_16">
     <g id="line2d_120">
      <g>
       <use xlink:href="#m1a69500c3a" x="26.199231" y="98.129459" style="stroke: #000000; stroke-width: 0.5"/>
      </g>
     </g>
     <g id="line2d_121">
      <g>
       <use xlink:href="#m2a4abbe418" x="487.665231" y="98.129459" style="stroke: #000000; stroke-width: 0.5"/>
      </g>
     </g>
    </g>
    <g id="ytick_17">
     <g id="line2d_122">
      <g>
       <use xlink:href="#m1a69500c3a" x="26.199231" y="94.599183" style="stroke: #000000; stroke-width: 0.5"/>
      </g>
     </g>
     <g id="line2d_123">
      <g>
       <use xlink:href="#m2a4abbe418" x="487.665231" y="94.599183" style="stroke: #000000; stroke-width: 0.5"/>
      </g>
     </g>
    </g>
    <g id="ytick_18">
     <g id="line2d_124">
      <g>
       <use xlink:href="#m1a69500c3a" x="26.199231" y="91.068907" style="stroke: #000000; stroke-width: 0.5"/>
      </g>
     </g>
     <g id="line2d_125">
      <g>
       <use xlink:href="#m2a4abbe418" x="487.665231" y="91.068907" style="stroke: #000000; stroke-width: 0.5"/>
      </g>
     </g>
    </g>
    <g id="ytick_19">
     <g id="line2d_126">
      <g>
       <use xlink:href="#m1a69500c3a" x="26.199231" y="87.53863" style="stroke: #000000; stroke-width: 0.5"/>
      </g>
     </g>
     <g id="line2d_127">
      <g>
       <use xlink:href="#m2a4abbe418" x="487.665231" y="87.53863" style="stroke: #000000; stroke-width: 0.5"/>
      </g>
     </g>
    </g>
    <g id="ytick_20">
     <g id="line2d_128">
      <g>
       <use xlink:href="#m1a69500c3a" x="26.199231" y="80.478078" style="stroke: #000000; stroke-width: 0.5"/>
      </g>
     </g>
     <g id="line2d_129">
      <g>
       <use xlink:href="#m2a4abbe418" x="487.665231" y="80.478078" style="stroke: #000000; stroke-width: 0.5"/>
      </g>
     </g>
    </g>
    <g id="ytick_21">
     <g id="line2d_130">
      <g>
       <use xlink:href="#m1a69500c3a" x="26.199231" y="76.947802" style="stroke: #000000; stroke-width: 0.5"/>
      </g>
     </g>
     <g id="line2d_131">
      <g>
       <use xlink:href="#m2a4abbe418" x="487.665231" y="76.947802" style="stroke: #000000; stroke-width: 0.5"/>
      </g>
     </g>
    </g>
    <g id="ytick_22">
     <g id="line2d_132">
      <g>
       <use xlink:href="#m1a69500c3a" x="26.199231" y="73.417526" style="stroke: #000000; stroke-width: 0.5"/>
      </g>
     </g>
     <g id="line2d_133">
      <g>
       <use xlink:href="#m2a4abbe418" x="487.665231" y="73.417526" style="stroke: #000000; stroke-width: 0.5"/>
      </g>
     </g>
    </g>
    <g id="ytick_23">
     <g id="line2d_134">
      <g>
       <use xlink:href="#m1a69500c3a" x="26.199231" y="69.887249" style="stroke: #000000; stroke-width: 0.5"/>
      </g>
     </g>
     <g id="line2d_135">
      <g>
       <use xlink:href="#m2a4abbe418" x="487.665231" y="69.887249" style="stroke: #000000; stroke-width: 0.5"/>
      </g>
     </g>
    </g>
    <g id="ytick_24">
     <g id="line2d_136">
      <g>
       <use xlink:href="#m1a69500c3a" x="26.199231" y="62.826697" style="stroke: #000000; stroke-width: 0.5"/>
      </g>
     </g>
     <g id="line2d_137">
      <g>
       <use xlink:href="#m2a4abbe418" x="487.665231" y="62.826697" style="stroke: #000000; stroke-width: 0.5"/>
      </g>
     </g>
    </g>
    <g id="ytick_25">
     <g id="line2d_138">
      <g>
       <use xlink:href="#m1a69500c3a" x="26.199231" y="59.296421" style="stroke: #000000; stroke-width: 0.5"/>
      </g>
     </g>
     <g id="line2d_139">
      <g>
       <use xlink:href="#m2a4abbe418" x="487.665231" y="59.296421" style="stroke: #000000; stroke-width: 0.5"/>
      </g>
     </g>
    </g>
    <g id="ytick_26">
     <g id="line2d_140">
      <g>
       <use xlink:href="#m1a69500c3a" x="26.199231" y="55.766145" style="stroke: #000000; stroke-width: 0.5"/>
      </g>
     </g>
     <g id="line2d_141">
      <g>
       <use xlink:href="#m2a4abbe418" x="487.665231" y="55.766145" style="stroke: #000000; stroke-width: 0.5"/>
      </g>
     </g>
    </g>
    <g id="ytick_27">
     <g id="line2d_142">
      <g>
       <use xlink:href="#m1a69500c3a" x="26.199231" y="52.235868" style="stroke: #000000; stroke-width: 0.5"/>
      </g>
     </g>
     <g id="line2d_143">
      <g>
       <use xlink:href="#m2a4abbe418" x="487.665231" y="52.235868" style="stroke: #000000; stroke-width: 0.5"/>
      </g>
     </g>
    </g>
    <g id="ytick_28">
     <g id="line2d_144">
      <g>
       <use xlink:href="#m1a69500c3a" x="26.199231" y="45.175316" style="stroke: #000000; stroke-width: 0.5"/>
      </g>
     </g>
     <g id="line2d_145">
      <g>
       <use xlink:href="#m2a4abbe418" x="487.665231" y="45.175316" style="stroke: #000000; stroke-width: 0.5"/>
      </g>
     </g>
    </g>
    <g id="ytick_29">
     <g id="line2d_146">
      <g>
       <use xlink:href="#m1a69500c3a" x="26.199231" y="41.64504" style="stroke: #000000; stroke-width: 0.5"/>
      </g>
     </g>
     <g id="line2d_147">
      <g>
       <use xlink:href="#m2a4abbe418" x="487.665231" y="41.64504" style="stroke: #000000; stroke-width: 0.5"/>
      </g>
     </g>
    </g>
    <g id="ytick_30">
     <g id="line2d_148">
      <g>
       <use xlink:href="#m1a69500c3a" x="26.199231" y="38.114764" style="stroke: #000000; stroke-width: 0.5"/>
      </g>
     </g>
     <g id="line2d_149">
      <g>
       <use xlink:href="#m2a4abbe418" x="487.665231" y="38.114764" style="stroke: #000000; stroke-width: 0.5"/>
      </g>
     </g>
    </g>
    <g id="ytick_31">
     <g id="line2d_150">
      <g>
       <use xlink:href="#m1a69500c3a" x="26.199231" y="34.584487" style="stroke: #000000; stroke-width: 0.5"/>
      </g>
     </g>
     <g id="line2d_151">
      <g>
       <use xlink:href="#m2a4abbe418" x="487.665231" y="34.584487" style="stroke: #000000; stroke-width: 0.5"/>
      </g>
     </g>
    </g>
    <g id="ytick_32">
     <g id="line2d_152">
      <g>
       <use xlink:href="#m1a69500c3a" x="26.199231" y="27.523935" style="stroke: #000000; stroke-width: 0.5"/>
      </g>
     </g>
     <g id="line2d_153">
      <g>
       <use xlink:href="#m2a4abbe418" x="487.665231" y="27.523935" style="stroke: #000000; stroke-width: 0.5"/>
      </g>
     </g>
    </g>
    <g id="ytick_33">
     <g id="line2d_154">
      <g>
       <use xlink:href="#m1a69500c3a" x="26.199231" y="23.993659" style="stroke: #000000; stroke-width: 0.5"/>
      </g>
     </g>
     <g id="line2d_155">
      <g>
       <use xlink:href="#m2a4abbe418" x="487.665231" y="23.993659" style="stroke: #000000; stroke-width: 0.5"/>
      </g>
     </g>
    </g>
    <g id="ytick_34">
     <g id="line2d_156">
      <g>
       <use xlink:href="#m1a69500c3a" x="26.199231" y="20.463383" style="stroke: #000000; stroke-width: 0.5"/>
      </g>
     </g>
     <g id="line2d_157">
      <g>
       <use xlink:href="#m2a4abbe418" x="487.665231" y="20.463383" style="stroke: #000000; stroke-width: 0.5"/>
      </g>
     </g>
    </g>
    <g id="ytick_35">
     <g id="line2d_158">
      <g>
       <use xlink:href="#m1a69500c3a" x="26.199231" y="16.933106" style="stroke: #000000; stroke-width: 0.5"/>
      </g>
     </g>
     <g id="line2d_159">
      <g>
       <use xlink:href="#m2a4abbe418" x="487.665231" y="16.933106" style="stroke: #000000; stroke-width: 0.5"/>
      </g>
     </g>
    </g>
    <g id="ytick_36">
     <g id="line2d_160">
      <g>
       <use xlink:href="#m1a69500c3a" x="26.199231" y="9.872554" style="stroke: #000000; stroke-width: 0.5"/>
      </g>
     </g>
     <g id="line2d_161">
      <g>
       <use xlink:href="#m2a4abbe418" x="487.665231" y="9.872554" style="stroke: #000000; stroke-width: 0.5"/>
      </g>
     </g>
    </g>
    <g id="ytick_37">
     <g id="line2d_162">
      <g>
       <use xlink:href="#m1a69500c3a" x="26.199231" y="6.342278" style="stroke: #000000; stroke-width: 0.5"/>
      </g>
     </g>
     <g id="line2d_163">
      <g>
       <use xlink:href="#m2a4abbe418" x="487.665231" y="6.342278" style="stroke: #000000; stroke-width: 0.5"/>
      </g>
     </g>
    </g>
    <g id="text_8">
     <!-- Temperatura [ºC] -->
     <g transform="translate(9.003656 97.752154) rotate(-90) scale(0.08 -0.08)">
      <defs>
       <path id="NimbusRomNo9L-Regu-54" d="M 1626 3955 
L 1626 765 
C 1626 223 1555 153 1024 121 
L 1024 0 
L 2893 0 
L 2893 121 
C 2368 147 2278 230 2278 695 
L 2278 3955 
L 2624 3955 
C 3354 3955 3494 3840 3642 3138 
L 3795 3138 
L 3757 4224 
L 147 4224 
L 109 3138 
L 262 3138 
C 416 3834 563 3955 1280 3955 
L 1626 3955 
z
" transform="scale(0.015625)"/>
       <path id="NimbusRomNo9L-Regu-65" d="M 2611 1052 
C 2304 564 2029 377 1619 377 
C 1254 377 979 564 794 930 
C 678 1174 634 1386 621 1779 
L 2592 1779 
C 2541 2193 2477 2377 2317 2580 
C 2125 2809 1830 2944 1498 2944 
C 1178 2944 877 2828 634 2612 
C 333 2351 160 1900 160 1374 
C 160 486 621 -64 1357 -64 
C 1965 -64 2445 313 2714 1007 
L 2611 1052 
z
M 634 1984 
C 704 2478 922 2713 1312 2713 
C 1702 2713 1856 2535 1939 1984 
L 634 1984 
z
" transform="scale(0.015625)"/>
       <path id="NimbusRomNo9L-Regu-6d" d="M 122 2547 
C 205 2566 256 2572 326 2572 
C 493 2572 550 2470 550 2163 
L 550 544 
C 550 198 461 102 102 96 
L 102 0 
L 1523 0 
L 1523 96 
C 1184 108 1088 179 1088 428 
L 1088 2233 
C 1088 2246 1139 2310 1184 2355 
C 1344 2502 1619 2611 1843 2611 
C 2125 2611 2266 2387 2266 1939 
L 2266 550 
C 2266 192 2195 121 1830 96 
L 1830 0 
L 3264 0 
L 3264 96 
C 2899 102 2803 211 2803 608 
L 2803 2220 
C 2995 2496 3206 2611 3501 2611 
C 3866 2611 3981 2438 3981 1907 
L 3981 556 
C 3981 192 3930 140 3558 96 
L 3558 0 
L 4960 0 
L 4960 96 
L 4794 108 
C 4602 121 4518 236 4518 486 
L 4518 1804 
C 4518 2560 4269 2944 3776 2944 
C 3405 2944 3078 2777 2733 2406 
C 2618 2771 2400 2944 2054 2944 
C 1773 2944 1594 2854 1062 2451 
L 1062 2931 
L 1018 2944 
C 691 2822 474 2751 122 2655 
L 122 2547 
z
" transform="scale(0.015625)"/>
       <path id="NimbusRomNo9L-Regu-70" d="M 58 2515 
C 115 2521 160 2521 218 2521 
C 435 2521 480 2457 480 2157 
L 480 -839 
C 480 -1172 410 -1242 32 -1280 
L 32 -1389 
L 1581 -1389 
L 1581 -1280 
C 1101 -1274 1018 -1203 1018 -798 
L 1018 211 
C 1242 0 1395 -64 1664 -64 
C 2419 -64 3008 652 3008 1580 
C 3008 2374 2560 2944 1939 2944 
C 1581 2944 1299 2783 1018 2438 
L 1018 2931 
L 979 2944 
C 634 2809 410 2726 58 2617 
L 58 2515 
z
M 1018 2137 
C 1018 2329 1376 2559 1670 2559 
C 2144 2559 2458 2073 2458 1331 
C 2458 620 2144 140 1683 140 
C 1382 140 1018 371 1018 563 
L 1018 2137 
z
" transform="scale(0.015625)"/>
       <path id="NimbusRomNo9L-Regu-72" d="M 45 2496 
C 134 2515 192 2521 269 2521 
C 429 2521 486 2419 486 2137 
L 486 537 
C 486 217 442 172 32 96 
L 32 0 
L 1568 0 
L 1568 96 
C 1133 115 1024 211 1024 576 
L 1024 2016 
C 1024 2220 1299 2540 1472 2540 
C 1510 2540 1568 2508 1638 2444 
C 1741 2355 1811 2316 1894 2316 
C 2048 2316 2144 2425 2144 2604 
C 2144 2815 2010 2944 1792 2944 
C 1523 2944 1338 2796 1024 2342 
L 1024 2931 
L 992 2944 
C 653 2803 422 2720 45 2598 
L 45 2496 
z
" transform="scale(0.015625)"/>
       <path id="NimbusRomNo9L-Regu-61" d="M 2829 422 
C 2720 332 2643 300 2547 300 
C 2400 300 2355 390 2355 672 
L 2355 1920 
C 2355 2252 2323 2438 2227 2592 
C 2086 2822 1811 2944 1434 2944 
C 832 2944 358 2630 358 2227 
C 358 2080 486 1952 634 1952 
C 787 1952 922 2080 922 2220 
C 922 2246 915 2278 909 2323 
C 896 2380 890 2432 890 2476 
C 890 2649 1094 2790 1350 2790 
C 1664 2790 1837 2604 1837 2259 
L 1837 1868 
C 851 1472 742 1420 467 1177 
C 326 1049 237 832 237 620 
C 237 217 518 -64 909 -64 
C 1190 -64 1453 70 1843 403 
C 1875 70 1990 -64 2253 -64 
C 2470 -64 2605 12 2829 256 
L 2829 422 
z
M 1837 787 
C 1837 588 1805 531 1670 454 
C 1517 364 1338 307 1203 307 
C 979 307 800 524 800 800 
L 800 825 
C 800 1203 1062 1433 1837 1715 
L 1837 787 
z
" transform="scale(0.015625)"/>
       <path id="NimbusRomNo9L-Regu-74" d="M 1632 2880 
L 986 2880 
L 986 3622 
C 986 3686 979 3705 941 3705 
C 896 3648 858 3590 813 3526 
C 570 3174 294 2867 192 2841 
C 122 2796 83 2751 83 2719 
C 83 2700 90 2687 109 2675 
L 448 2675 
L 448 748 
C 448 211 640 -64 1018 -64 
C 1331 -64 1574 89 1786 422 
L 1702 492 
C 1568 332 1459 268 1318 268 
C 1082 268 986 441 986 844 
L 986 2675 
L 1632 2675 
L 1632 2880 
z
" transform="scale(0.015625)"/>
       <path id="NimbusRomNo9L-Regu-75" d="M 3066 319 
L 3034 319 
C 2739 319 2669 390 2669 684 
L 2669 2880 
L 1658 2880 
L 1658 2771 
C 2054 2752 2131 2688 2131 2368 
L 2131 864 
C 2131 684 2099 595 2010 524 
C 1837 384 1638 307 1446 307 
C 1197 307 992 524 992 793 
L 992 2880 
L 58 2880 
L 58 2790 
C 365 2771 454 2675 454 2380 
L 454 768 
C 454 262 762 -64 1229 -64 
C 1466 -64 1715 38 1888 211 
L 2163 486 
L 2163 -45 
L 2189 -64 
C 2509 64 2739 134 3066 224 
L 3066 319 
z
" transform="scale(0.015625)"/>
       <path id="NimbusRomNo9L-Regu-5b" d="M 1914 -832 
L 1363 -832 
C 1152 -832 1050 -724 1050 -501 
L 1050 3783 
C 1050 3981 1133 4063 1338 4063 
L 1914 4063 
L 1914 4224 
L 563 4224 
L 563 -993 
L 1914 -993 
L 1914 -832 
z
" transform="scale(0.015625)"/>
       <path id="NimbusRomNo9L-Regu-ba" d="M 1018 4352 
C 435 4352 38 3980 38 3433 
C 38 2919 429 2540 966 2540 
C 1523 2540 1946 2951 1946 3491 
C 1946 3999 1562 4352 1018 4352 
z
M 960 4140 
C 1267 4140 1478 3793 1478 3311 
C 1478 2951 1318 2752 1024 2752 
C 864 2752 742 2829 666 2970 
C 563 3157 506 3414 506 3665 
C 506 3954 685 4140 960 4140 
z
" transform="scale(0.015625)"/>
       <path id="NimbusRomNo9L-Regu-43" d="M 3968 2905 
L 3910 4352 
L 3776 4352 
C 3738 4217 3635 4140 3507 4140 
C 3450 4140 3354 4159 3258 4198 
C 2944 4300 2624 4352 2323 4352 
C 1798 4352 1267 4153 870 3801 
C 422 3405 179 2809 179 2105 
C 179 1510 371 960 698 595 
C 1082 179 1670 -64 2304 -64 
C 3027 -64 3661 230 4051 748 
L 3936 864 
C 3462 409 3040 217 2509 217 
C 2106 217 1747 345 1472 588 
C 1120 902 922 1478 922 2188 
C 922 3347 1517 4095 2445 4095 
C 2810 4095 3142 3961 3398 3705 
C 3603 3501 3699 3321 3821 2905 
L 3968 2905 
z
" transform="scale(0.015625)"/>
       <path id="NimbusRomNo9L-Regu-5d" d="M 218 -832 
L 218 -993 
L 1568 -993 
L 1568 4224 
L 218 4224 
L 218 4063 
L 768 4063 
C 979 4063 1082 3955 1082 3732 
L 1082 -552 
C 1082 -750 992 -832 794 -832 
L 218 -832 
z
" transform="scale(0.015625)"/>
      </defs>
      <use xlink:href="#NimbusRomNo9L-Regu-54" transform="scale(0.996264)"/>
      <use xlink:href="#NimbusRomNo9L-Regu-65" transform="translate(53.898284 0) scale(0.996264)"/>
      <use xlink:href="#NimbusRomNo9L-Regu-6d" transform="translate(98.131853 0) scale(0.996264)"/>
      <use xlink:href="#NimbusRomNo9L-Regu-70" transform="translate(175.640223 0) scale(0.996264)"/>
      <use xlink:href="#NimbusRomNo9L-Regu-65" transform="translate(225.453424 0) scale(0.996264)"/>
      <use xlink:href="#NimbusRomNo9L-Regu-72" transform="translate(269.686992 0) scale(0.996264)"/>
      <use xlink:href="#NimbusRomNo9L-Regu-61" transform="translate(302.862222 0) scale(0.996264)"/>
      <use xlink:href="#NimbusRomNo9L-Regu-74" transform="translate(347.095791 0) scale(0.996264)"/>
      <use xlink:href="#NimbusRomNo9L-Regu-75" transform="translate(374.79096 0) scale(0.996264)"/>
      <use xlink:href="#NimbusRomNo9L-Regu-72" transform="translate(424.604161 0) scale(0.996264)"/>
      <use xlink:href="#NimbusRomNo9L-Regu-61" transform="translate(457.779391 0) scale(0.996264)"/>
      <use xlink:href="#NimbusRomNo9L-Regu-5b" transform="translate(526.919559 0) scale(0.996264)"/>
      <use xlink:href="#NimbusRomNo9L-Regu-ba" transform="translate(560.094789 0) scale(0.996264)"/>
      <use xlink:href="#NimbusRomNo9L-Regu-43" transform="translate(590.978821 0) scale(0.996264)"/>
      <use xlink:href="#NimbusRomNo9L-Regu-5d" transform="translate(657.428853 0) scale(0.996264)"/>
     </g>
    </g>
   </g>
   <g id="line2d_164">
    <path d="M 47.174958 36.105713 
L 47.869519 31.202668 
L 48.564079 30.225254 
L 49.25864 29.860299 
L 50.647761 29.530532 
L 54.815124 28.93377 
L 60.371608 28.377846 
L 65.928092 28.06263 
L 70.790016 27.877705 
L 72.873697 27.574206 
L 75.651939 26.906679 
L 78.430181 26.023598 
L 82.597544 24.379086 
L 87.459468 22.425996 
L 90.23771 21.534806 
L 93.710512 20.730857 
L 98.572436 19.853229 
L 106.212601 18.755241 
L 111.769085 18.248297 
L 120.103812 17.664267 
L 124.271175 17.613964 
L 133.300461 17.654675 
L 136.078703 17.366421 
L 139.551506 16.73292 
L 143.024308 15.842204 
L 148.580792 14.391468 
L 151.359034 13.969887 
L 155.526397 13.603433 
L 163.166563 13.16956 
L 168.028486 13.095319 
L 174.279531 13.24824 
L 181.225136 13.623542 
L 193.032665 14.378265 
L 196.505467 14.246964 
L 199.283709 13.881679 
L 203.451072 13.050256 
L 209.007556 11.913253 
L 211.091238 11.755352 
L 214.56404 11.78091 
L 220.120524 12.080557 
L 234.011734 12.852154 
L 243.041021 13.447222 
L 252.764868 14.072808 
L 256.237671 14.123161 
L 256.932231 14.103803 
L 257.626792 12.437619 
L 258.321352 11.665524 
L 259.015913 11.285997 
L 260.405034 10.920981 
L 266.656078 9.914084 
L 269.43432 9.683472 
L 272.212562 9.665578 
L 275.685365 9.895848 
L 281.241849 10.509778 
L 287.492893 11.376563 
L 292.354817 12.28397 
L 302.078664 14.426524 
L 309.71883 16.022373 
L 312.497072 16.290398 
L 315.275314 16.344846 
L 318.748116 16.182532 
L 327.082842 15.601301 
L 327.777403 25.303584 
L 328.471963 28.084885 
L 329.166524 29.588805 
L 329.861084 30.527492 
L 331.250205 31.796186 
L 335.417568 34.848891 
L 343.057734 40.19118 
L 353.476141 47.536096 
L 361.810868 53.48448 
L 362.505428 36.160073 
L 363.199989 33.866758 
L 363.894549 32.86374 
L 364.58911 32.439255 
L 365.28367 32.27445 
L 366.672791 32.23568 
L 371.534715 32.38331 
L 374.312957 32.183881 
L 377.091199 31.771656 
L 379.869441 31.170194 
L 382.647683 30.440988 
L 383.342243 32.116791 
L 384.036804 32.596044 
L 384.731364 32.644343 
L 386.120485 32.389259 
L 389.593288 31.643403 
L 391.676969 31.430458 
L 395.844332 31.350907 
L 397.233453 31.358681 
L 397.928014 39.465266 
L 407.651861 39.756716 
L 427.099555 40.540989 
L 429.877797 40.503872 
L 432.656039 40.237076 
L 435.434281 39.721698 
L 438.907084 38.796991 
L 448.630931 36.056132 
L 450.714612 35.726159 
L 453.492854 35.532839 
L 458.354778 35.509457 
L 463.216701 35.708326 
L 466.689504 35.952358 
L 466.689504 35.952358 
" clip-path="url(#p492e12150e)" style="fill: none; stroke: #000000; stroke-linecap: square"/>
   </g>
   <g id="line2d_165">
    <path d="M 47.174958 37.929967 
L 47.869519 35.250763 
L 48.564079 34.273349 
L 49.25864 33.908394 
L 50.647761 33.578627 
L 54.815124 32.981865 
L 60.371608 32.425941 
L 65.928092 32.110725 
L 70.790016 31.9258 
L 72.873697 31.622301 
L 75.651939 30.954774 
L 78.430181 30.071693 
L 82.597544 28.427181 
L 87.459468 26.474091 
L 90.23771 25.582901 
L 93.710512 24.778952 
L 98.572436 23.901324 
L 106.212601 22.803336 
L 111.769085 22.296392 
L 120.103812 21.712362 
L 124.271175 21.662059 
L 133.300461 21.70277 
L 136.078703 21.414516 
L 139.551506 20.781015 
L 143.024308 19.890299 
L 148.580792 18.439563 
L 151.359034 18.017982 
L 155.526397 17.651528 
L 163.166563 17.217655 
L 168.028486 17.143414 
L 174.279531 17.296335 
L 181.225136 17.671637 
L 193.032665 18.42636 
L 196.505467 18.295059 
L 199.283709 17.929774 
L 203.451072 17.098351 
L 209.007556 15.961348 
L 211.091238 15.803447 
L 214.56404 15.829005 
L 220.120524 16.128652 
L 234.011734 16.900249 
L 243.041021 17.495317 
L 252.764868 18.120903 
L 256.237671 18.171256 
L 256.932231 18.151898 
L 257.626792 16.485714 
L 258.321352 15.713619 
L 259.015913 15.334092 
L 260.405034 14.969076 
L 266.656078 13.962179 
L 269.43432 13.731567 
L 272.212562 13.713673 
L 275.685365 13.943943 
L 281.241849 14.557873 
L 287.492893 15.424658 
L 292.354817 16.332065 
L 302.078664 18.474619 
L 309.71883 20.070468 
L 312.497072 20.338493 
L 315.275314 20.392941 
L 318.748116 20.230627 
L 327.082842 19.649396 
L 327.777403 25.303584 
L 328.471963 28.084885 
L 329.166524 29.588805 
L 329.861084 30.527492 
L 331.250205 31.796186 
L 335.417568 34.848891 
L 343.057734 40.19118 
L 353.476141 47.536096 
L 361.810868 53.48448 
L 362.505428 48.304358 
L 363.199989 46.011043 
L 363.894549 45.008025 
L 364.58911 44.58354 
L 365.28367 44.418735 
L 366.672791 44.379965 
L 371.534715 44.527595 
L 374.312957 44.328166 
L 377.091199 43.915941 
L 379.869441 43.31448 
L 382.647683 42.585273 
L 383.342243 44.261076 
L 384.036804 44.740329 
L 384.731364 44.788628 
L 386.120485 44.533544 
L 389.593288 43.787688 
L 391.676969 43.574743 
L 395.844332 43.495192 
L 401.400816 43.600859 
L 411.819224 43.999675 
L 425.015874 44.540419 
L 429.877797 44.551967 
L 432.656039 44.285171 
L 435.434281 43.769793 
L 438.907084 42.845086 
L 448.630931 40.104227 
L 450.714612 39.774254 
L 453.492854 39.580934 
L 458.354778 39.557552 
L 463.216701 39.756421 
L 466.689504 40.000453 
L 466.689504 40.000453 
" clip-path="url(#p492e12150e)" style="fill: none; stroke-dasharray: 3.7,1.6; stroke-dashoffset: 0; stroke: #ff0000"/>
   </g>
   <g id="line2d_166">
    <path d="M 47.174958 40.671293 
L 48.564079 40.774655 
L 49.9532 40.680745 
L 56.204245 39.852693 
L 61.760729 39.367616 
L 66.622653 39.157167 
L 70.095455 39.03122 
L 72.179137 38.767662 
L 74.957379 38.123269 
L 77.735621 37.267394 
L 81.208423 35.925789 
L 88.154028 33.170147 
L 90.93227 32.375617 
L 95.099633 31.506243 
L 100.656117 30.591285 
L 106.907162 29.757826 
L 115.241888 29.057506 
L 120.103812 28.768577 
L 124.271175 28.736577 
L 132.605901 28.798404 
L 135.384143 28.537543 
L 138.856945 27.927969 
L 142.329748 27.056891 
L 147.886232 25.5705 
L 150.664474 25.125039 
L 154.831837 24.744923 
L 163.166563 24.274296 
L 168.028486 24.215773 
L 174.279531 24.381992 
L 181.225136 24.768183 
L 192.338104 25.50023 
L 195.810907 25.397026 
L 197.894588 25.166414 
L 201.367391 24.542797 
L 209.007556 22.975663 
L 211.785798 22.850632 
L 215.953161 22.972901 
L 240.262779 24.38744 
L 252.764868 25.20963 
L 256.237671 25.239275 
L 260.405034 25.003842 
L 268.73976 23.880963 
L 271.518002 23.847122 
L 274.990804 24.076025 
L 280.547288 24.687741 
L 286.798333 25.545129 
L 291.660256 26.445376 
L 301.384104 28.587407 
L 309.024269 30.211217 
L 311.802511 30.49227 
L 315.275314 30.542933 
L 319.442677 30.294569 
L 326.388282 29.805489 
L 327.082842 29.775598 
L 327.777403 30.010757 
L 329.166524 30.810583 
L 332.639326 33.229105 
L 342.363173 40.072965 
L 352.08702 46.923451 
L 361.810868 53.862586 
L 363.199989 54.234556 
L 366.672791 54.533135 
L 370.145594 54.69468 
L 372.923836 54.578121 
L 375.702078 54.224456 
L 378.48032 53.680742 
L 382.647683 52.593632 
L 384.731364 51.899699 
L 388.204167 51.031431 
L 390.287848 50.711396 
L 393.06609 50.586024 
L 398.622574 50.605139 
L 409.735542 50.9897 
L 425.710434 51.63852 
L 429.183237 51.646384 
L 431.961479 51.406334 
L 434.739721 50.924906 
L 438.212523 50.013089 
L 448.630931 47.096299 
L 450.714612 46.797083 
L 453.492854 46.638203 
L 458.354778 46.634255 
L 463.216701 46.848706 
L 466.689504 47.100311 
L 466.689504 47.100311 
" clip-path="url(#p492e12150e)" style="fill: none; stroke-dasharray: 1,1.65; stroke-dashoffset: 0; stroke: #0000ff"/>
   </g>
   <g id="line2d_167">
    <path d="M 47.174958 47.019662 
L 48.564079 47.175024 
L 49.25864 47.180037 
L 49.9532 46.192043 
L 50.647761 45.900538 
L 52.036882 45.728769 
L 54.120563 45.657274 
L 60.371608 45.434643 
L 64.538971 45.484759 
L 68.011774 45.579376 
L 70.095455 45.154477 
L 71.484576 44.501654 
L 72.179137 43.889795 
L 74.957379 42.425862 
L 77.735621 40.889441 
L 79.124742 39.984219 
L 80.513863 39.226394 
L 83.292105 37.853548 
L 85.375786 37.145963 
L 87.459468 36.71097 
L 89.543149 36.65625 
L 92.321391 36.699699 
L 104.82348 35.372374 
L 110.379964 35.279193 
L 117.32557 34.831164 
L 122.882054 35.239397 
L 127.743977 35.622069 
L 130.522219 35.398768 
L 132.605901 34.915538 
L 133.995022 34.544399 
L 135.384143 33.967634 
L 140.246066 32.094466 
L 141.635187 31.410305 
L 143.024308 30.868616 
L 145.80255 30.143195 
L 147.191671 30.073476 
L 153.442716 30.615216 
L 165.250244 30.531912 
L 168.028486 30.740537 
L 176.363212 31.351735 
L 189.559862 32.449507 
L 190.254423 32.452313 
L 192.338104 32.127328 
L 195.116346 31.559875 
L 196.505467 31.139491 
L 197.200028 30.743715 
L 202.061951 29.032866 
L 204.840193 28.252777 
L 207.618435 27.938413 
L 209.007556 28.213423 
L 209.702117 28.642204 
L 211.785798 29.223818 
L 213.174919 29.486352 
L 220.120524 30.231867 
L 228.45525 30.628313 
L 234.706295 30.972266 
L 245.124703 31.857834 
L 249.292066 32.034027 
L 252.070308 32.08377 
L 253.459429 31.977678 
L 255.54311 31.726092 
L 259.015913 30.884505 
L 260.405034 30.324059 
L 262.488715 29.698728 
L 264.572397 29.379655 
L 265.266957 29.302107 
L 267.350639 29.59877 
L 269.43432 29.975415 
L 276.379925 31.520518 
L 280.547288 32.215795 
L 284.020091 32.743426 
L 291.660256 34.684646 
L 296.52218 35.91774 
L 302.773225 37.333621 
L 307.635148 38.315222 
L 309.024269 38.274443 
L 310.41339 37.903846 
L 320.831798 36.014964 
L 323.61004 35.896776 
L 327.082842 35.943745 
L 327.777403 36.158579 
L 334.723008 41.572018 
L 338.890371 44.342607 
L 342.363173 46.709879 
L 347.919657 50.816323 
L 352.08702 53.816053 
L 357.643504 57.824158 
L 361.810868 60.967196 
L 362.505428 61.313037 
L 363.894549 61.640987 
L 366.672791 62.050717 
L 367.367352 62.134407 
L 368.756473 61.946319 
L 371.534715 61.32201 
L 372.923836 60.70444 
L 376.396638 59.406193 
L 379.17488 58.169088 
L 381.258562 57.358181 
L 384.731364 56.157494 
L 387.509606 55.76369 
L 388.898727 56.02975 
L 390.287848 56.40508 
L 390.982409 56.741128 
L 392.37153 57.131892 
L 394.455211 57.285899 
L 397.233453 57.501163 
L 401.400816 57.750333 
L 406.26274 57.974602 
L 411.819224 58.339261 
L 418.764829 58.609515 
L 427.794116 58.673978 
L 429.183237 58.134854 
L 431.266918 57.434862 
L 434.04516 56.255566 
L 434.739721 55.741206 
L 437.517963 54.47808 
L 441.685326 52.991522 
L 443.074447 52.59119 
L 446.547249 51.871174 
L 447.24181 51.823412 
L 448.630931 52.027976 
L 454.187415 53.198203 
L 459.743899 53.735025 
L 466.689504 54.56561 
L 466.689504 54.56561 
" clip-path="url(#p492e12150e)" style="fill: none; stroke-dasharray: 6.4,1.6,1,1.6; stroke-dashoffset: 0; stroke: #008000"/>
   </g>
   <g id="line2d_168">
    <path d="M 47.174958 105.896067 
L 49.25864 105.896067 
L 49.9532 92.481017 
L 51.342321 93.187072 
L 52.036882 93.893128 
L 52.731442 94.246155 
L 53.426003 95.305238 
L 54.120563 96.011293 
L 56.898806 97.423404 
L 57.593366 98.129459 
L 58.287927 98.482487 
L 58.982487 98.482487 
L 60.371608 99.894597 
L 62.45529 100.95368 
L 65.233532 103.777901 
L 65.928092 104.836984 
L 66.622653 105.543039 
L 67.317213 105.896067 
L 68.011774 104.483956 
L 68.706334 103.424873 
L 70.095455 100.600652 
L 71.484576 94.246155 
L 72.179137 87.891658 
L 77.735621 71.29936 
L 78.430181 68.122111 
L 79.124742 66.710001 
L 79.819302 64.944863 
L 80.513863 64.238808 
L 82.597544 61.061559 
L 83.986665 61.061559 
L 84.681226 61.414587 
L 85.375786 62.120642 
L 87.459468 65.29789 
L 90.93227 76.241747 
L 91.626831 77.300829 
L 92.321391 78.71294 
L 93.015952 79.065968 
L 93.710512 79.772023 
L 94.405073 80.12505 
L 95.099633 80.831106 
L 96.488754 81.537161 
L 97.183315 82.596244 
L 97.877875 82.949271 
L 98.572436 82.949271 
L 99.266996 83.302299 
L 100.656117 83.302299 
L 101.350678 83.655327 
L 102.739799 83.655327 
L 103.434359 84.361382 
L 104.12892 84.361382 
L 104.82348 84.714409 
L 105.518041 85.773492 
L 106.212601 86.479548 
L 106.907162 87.53863 
L 107.601722 88.244686 
L 108.296283 88.597713 
L 108.990843 88.597713 
L 109.685404 89.303769 
L 113.158206 89.303769 
L 113.852767 88.950741 
L 114.547327 88.950741 
L 115.241888 88.597713 
L 115.936448 89.303769 
L 117.32557 90.009824 
L 118.02013 91.068907 
L 121.492933 94.599183 
L 122.187493 96.011293 
L 124.965735 98.835514 
L 125.660296 99.188542 
L 126.354856 99.188542 
L 127.743977 99.894597 
L 128.438538 98.835514 
L 129.827659 98.129459 
L 130.522219 96.364321 
L 131.21678 94.95221 
L 132.605901 91.421934 
L 133.300461 90.009824 
L 133.995022 88.244686 
L 134.689582 85.067437 
L 137.467824 78.006885 
L 138.162385 76.594774 
L 138.856945 74.829636 
L 140.246066 72.005415 
L 140.940627 69.181194 
L 141.635187 68.122111 
L 142.329748 66.710001 
L 143.024308 66.356973 
L 143.718869 66.356973 
L 145.10799 65.650918 
L 146.497111 67.769084 
L 148.580792 74.476608 
L 149.969913 79.418995 
L 151.359034 81.537161 
L 152.053595 82.949271 
L 152.748155 84.008354 
L 153.442716 84.714409 
L 155.526397 85.773492 
L 156.220958 85.773492 
L 156.915518 86.12652 
L 158.304639 86.12652 
L 160.388321 87.185603 
L 161.082881 87.185603 
L 162.472002 87.891658 
L 163.861123 89.303769 
L 164.555684 89.656796 
L 165.250244 90.362851 
L 165.944805 91.421934 
L 167.333926 92.127989 
L 168.028486 92.834045 
L 169.417607 93.5401 
L 170.112168 94.246155 
L 171.501289 94.95221 
L 172.195849 95.658266 
L 172.89041 95.658266 
L 174.279531 96.364321 
L 174.974091 96.364321 
L 177.057773 97.423404 
L 177.752334 97.423404 
L 178.446894 98.482487 
L 180.530576 99.541569 
L 181.225136 99.541569 
L 182.614257 100.247625 
L 183.308818 100.247625 
L 184.697939 100.95368 
L 186.78162 100.95368 
L 187.476181 101.306708 
L 188.170741 100.600652 
L 188.865302 100.247625 
L 189.559862 99.541569 
L 190.254423 99.188542 
L 190.948983 96.717349 
L 192.338104 94.599183 
L 193.032665 93.187072 
L 193.727225 91.421934 
L 195.116346 88.597713 
L 196.505467 84.714409 
L 197.200028 80.478078 
L 197.894588 79.065968 
L 199.283709 75.535691 
L 199.97827 74.123581 
L 202.061951 70.946332 
L 203.451072 69.534222 
L 204.840193 68.828167 
L 207.618435 71.652388 
L 209.007556 77.653857 
L 209.702117 84.008354 
L 212.480359 92.127989 
L 215.258601 94.95221 
L 215.953161 96.011293 
L 218.036843 97.070376 
L 218.731403 97.070376 
L 219.425964 97.423404 
L 221.509645 97.423404 
L 222.204206 97.070376 
L 227.76069 97.070376 
L 228.45525 96.717349 
L 232.622613 96.717349 
L 233.317174 97.070376 
L 234.011734 97.070376 
L 235.400855 97.776431 
L 236.095416 97.776431 
L 238.179098 98.835514 
L 238.873658 98.835514 
L 240.262779 99.541569 
L 240.95734 99.541569 
L 241.6519 99.894597 
L 246.513824 99.894597 
L 247.902945 99.188542 
L 248.597505 99.188542 
L 249.292066 98.835514 
L 249.986626 98.835514 
L 252.764868 97.423404 
L 253.459429 95.658266 
L 254.84855 94.246155 
L 259.015913 83.655327 
L 259.710473 80.12505 
L 260.405034 79.065968 
L 261.099594 77.653857 
L 262.488715 75.535691 
L 263.183276 75.535691 
L 263.877836 75.888719 
L 264.572397 75.888719 
L 265.266957 76.241747 
L 265.961518 79.418995 
L 266.656078 80.831106 
L 268.045199 84.361382 
L 270.128881 90.362851 
L 270.823441 91.774962 
L 271.518002 93.5401 
L 272.212562 96.717349 
L 274.296244 99.894597 
L 277.769046 103.424873 
L 280.547288 104.836984 
L 281.241849 104.836984 
L 281.936409 105.190011 
L 282.63097 105.190011 
L 283.32553 105.896067 
L 284.020091 106.249094 
L 284.714651 107.308177 
L 288.882014 111.544509 
L 289.576575 112.603591 
L 290.271135 113.309647 
L 290.965696 114.368729 
L 291.660256 114.721757 
L 292.354817 115.427812 
L 293.743938 116.133868 
L 294.438498 116.839923 
L 295.827619 117.545978 
L 296.52218 117.545978 
L 297.21674 117.899006 
L 297.911301 117.899006 
L 298.605861 118.252033 
L 300.689543 118.252033 
L 302.078664 118.958089 
L 307.635148 118.958089 
L 308.329709 117.19295 
L 309.024269 115.074785 
L 309.71883 110.838453 
L 312.497072 102.36579 
L 314.580753 98.129459 
L 315.275314 96.364321 
L 315.969874 94.246155 
L 317.358995 92.127989 
L 318.053556 91.774962 
L 320.137237 89.656796 
L 320.831798 90.009824 
L 322.220919 90.009824 
L 322.915479 90.362851 
L 323.61004 91.068907 
L 324.999161 91.774962 
L 326.388282 93.187072 
L 327.082842 93.5401 
L 327.777403 94.246155 
L 328.471963 97.776431 
L 329.861084 101.306708 
L 331.250205 103.424873 
L 331.944766 104.130929 
L 332.639326 105.190011 
L 333.333887 105.896067 
L 334.028447 106.249094 
L 334.723008 107.308177 
L 338.19581 107.308177 
L 338.890371 107.661205 
L 340.279492 107.661205 
L 340.974052 108.720288 
L 342.363173 109.426343 
L 345.835976 112.956619 
L 346.530536 113.309647 
L 347.225097 114.721757 
L 348.614218 116.133868 
L 349.308778 116.486895 
L 350.003339 117.19295 
L 352.781581 118.605061 
L 354.170702 120.017171 
L 355.559823 120.723227 
L 356.254383 121.429282 
L 356.948944 121.78231 
L 359.032625 123.900475 
L 359.727186 124.959558 
L 360.421747 125.665613 
L 361.116307 126.018641 
L 362.505428 127.430751 
L 363.894549 128.136807 
L 364.58911 128.842862 
L 365.28367 129.19589 
L 365.978231 129.901945 
L 367.367352 130.608 
L 369.451033 125.312586 
L 370.145594 123.900475 
L 371.534715 120.017171 
L 372.229275 116.133868 
L 374.312957 110.132398 
L 377.785759 101.306708 
L 378.48032 98.835514 
L 379.869441 96.011293 
L 380.564001 95.305238 
L 381.258562 94.246155 
L 382.647683 92.834045 
L 383.342243 92.481017 
L 384.036804 92.481017 
L 384.731364 92.127989 
L 385.425925 93.187072 
L 387.509606 95.305238 
L 390.287848 107.661205 
L 390.982409 112.250564 
L 392.37153 116.486895 
L 393.06609 117.19295 
L 395.149772 118.252033 
L 395.844332 118.958089 
L 396.538893 119.311116 
L 397.233453 120.370199 
L 400.011695 121.78231 
L 404.179058 121.78231 
L 408.346421 123.900475 
L 411.124663 123.900475 
L 411.819224 124.253503 
L 414.597466 124.253503 
L 415.292026 123.900475 
L 418.764829 123.900475 
L 419.459389 123.547448 
L 421.543071 123.547448 
L 422.932192 122.841392 
L 423.626753 122.841392 
L 424.321313 122.488365 
L 425.015874 122.488365 
L 425.710434 122.135337 
L 426.404995 122.135337 
L 427.099555 121.78231 
L 427.794116 121.78231 
L 428.488676 117.545978 
L 434.04516 100.600652 
L 434.739721 96.011293 
L 437.517963 90.362851 
L 440.296205 87.53863 
L 442.379886 86.479548 
L 443.769007 87.185603 
L 444.463568 87.185603 
L 445.158128 87.53863 
L 446.547249 88.950741 
L 447.24181 90.362851 
L 450.714612 104.130929 
L 452.798294 111.191481 
L 453.492854 112.603591 
L 454.187415 112.956619 
L 455.576536 114.368729 
L 456.271096 114.721757 
L 458.354778 116.839923 
L 459.049338 117.19295 
L 459.743899 118.605061 
L 460.438459 118.958089 
L 461.13302 119.664144 
L 461.82758 120.017171 
L 462.522141 120.723227 
L 463.911262 121.429282 
L 464.605822 122.135337 
L 465.300383 122.488365 
L 465.994943 123.19442 
L 466.689504 123.19442 
L 466.689504 123.19442 
" clip-path="url(#p492e12150e)" style="fill: none; stroke-dasharray: 10,3; stroke-dashoffset: 5; stroke: #800080"/>
   </g>
   <g id="patch_3">
    <path d="M 26.199231 136.656 
L 26.199231 3.6 
" style="fill: none; stroke: #000000; stroke-width: 0.5; stroke-linejoin: miter; stroke-linecap: square"/>
   </g>
   <g id="patch_4">
    <path d="M 487.665231 136.656 
L 487.665231 3.6 
" style="fill: none; stroke: #000000; stroke-width: 0.5; stroke-linejoin: miter; stroke-linecap: square"/>
   </g>
   <g id="patch_5">
    <path d="M 26.199231 136.656 
L 487.665231 136.656 
" style="fill: none; stroke: #000000; stroke-width: 0.5; stroke-linejoin: miter; stroke-linecap: square"/>
   </g>
   <g id="patch_6">
    <path d="M 26.199231 3.6 
L 487.665231 3.6 
" style="fill: none; stroke: #000000; stroke-width: 0.5; stroke-linejoin: miter; stroke-linecap: square"/>
   </g>
   <g id="legend_1">
    <g id="patch_7">
     <path d="M 213.363915 99.641658 
L 300.500547 99.641658 
Q 302.100547 99.641658 302.100547 98.041658 
L 302.100547 42.214342 
Q 302.100547 40.614342 300.500547 40.614342 
L 213.363915 40.614342 
Q 211.763915 40.614342 211.763915 42.214342 
L 211.763915 98.041658 
Q 211.763915 99.641658 213.363915 99.641658 
z
" style="fill: #ffffff; opacity: 0.8; stroke: #cccccc; stroke-linejoin: miter"/>
    </g>
    <g id="line2d_169">
     <path d="M 214.963915 46.614342 
L 222.963915 46.614342 
L 230.963915 46.614342 
" style="fill: none; stroke: #000000; stroke-linecap: square"/>
    </g>
    <g id="text_9">
     <!-- Salida bomba calor -->
     <g transform="translate(237.363915 49.414342) scale(0.08 -0.08)">
      <defs>
       <path id="NimbusRomNo9L-Regu-53" d="M 2861 4313 
L 2726 4313 
C 2701 4166 2630 4095 2522 4095 
C 2458 4095 2349 4121 2240 4172 
C 2003 4300 1766 4352 1562 4352 
C 1286 4352 1005 4243 794 4057 
C 570 3859 454 3590 454 3257 
C 454 2745 736 2387 1453 2009 
C 1914 1766 2246 1504 2406 1260 
C 2464 1177 2496 1043 2496 889 
C 2496 460 2176 166 1709 166 
C 1139 166 736 518 416 1299 
L 269 1299 
L 461 -58 
L 602 -58 
C 608 38 685 128 781 128 
C 851 128 960 102 1082 57 
C 1325 -13 1581 -64 1837 -64 
C 2573 -64 3142 441 3142 1100 
C 3142 1625 2790 2041 1946 2496 
C 1274 2867 1005 3148 1005 3494 
C 1005 3846 1274 4089 1670 4089 
C 1958 4089 2227 3968 2451 3737 
C 2650 3533 2739 3366 2842 2988 
L 3002 2988 
L 2861 4313 
z
" transform="scale(0.015625)"/>
       <path id="NimbusRomNo9L-Regu-6c" d="M 122 3987 
L 160 3987 
C 230 3993 307 4000 358 4000 
C 563 4000 627 3910 627 3609 
L 627 556 
C 627 211 538 128 134 96 
L 134 0 
L 1645 0 
L 1645 96 
C 1242 121 1165 185 1165 537 
L 1165 4358 
L 1139 4371 
C 806 4262 563 4198 122 4089 
L 122 3987 
z
" transform="scale(0.015625)"/>
       <path id="NimbusRomNo9L-Regu-69" d="M 1120 2944 
L 128 2592 
L 128 2496 
L 179 2502 
C 256 2515 339 2521 397 2521 
C 550 2521 608 2419 608 2137 
L 608 652 
C 608 192 544 121 102 96 
L 102 0 
L 1619 0 
L 1619 96 
C 1197 128 1146 192 1146 652 
L 1146 2924 
L 1120 2944 
z
M 819 4352 
C 646 4352 499 4204 499 4025 
C 499 3846 640 3699 819 3699 
C 1005 3699 1152 3839 1152 4025 
C 1152 4204 1005 4352 819 4352 
z
" transform="scale(0.015625)"/>
       <path id="NimbusRomNo9L-Regu-64" d="M 2202 -64 
L 3142 268 
L 3142 371 
C 3027 364 3014 364 2995 364 
C 2765 364 2714 435 2714 729 
L 2714 4358 
L 2682 4371 
C 2374 4262 2150 4198 1741 4089 
L 1741 3987 
C 1792 3993 1830 3993 1882 3993 
C 2118 3993 2176 3929 2176 3667 
L 2176 2668 
C 1933 2873 1760 2944 1504 2944 
C 768 2944 173 2220 173 1312 
C 173 492 653 -64 1357 -64 
C 1715 -64 1958 64 2176 364 
L 2176 -45 
L 2202 -64 
z
M 2176 652 
C 2176 608 2131 531 2067 460 
C 1952 332 1792 268 1606 268 
C 1075 268 723 780 723 1568 
C 723 2291 1037 2764 1523 2764 
C 1862 2764 2176 2464 2176 2124 
L 2176 652 
z
" transform="scale(0.015625)"/>
       <path id="NimbusRomNo9L-Regu-62" d="M 979 4358 
L 947 4371 
C 678 4275 506 4224 205 4140 
L 19 4089 
L 19 3987 
C 58 3993 83 3993 128 3993 
C 384 3993 442 3936 442 3667 
L 442 345 
C 442 147 986 -64 1498 -64 
C 2342 -64 2995 639 2995 1555 
C 2995 2342 2509 2944 1869 2944 
C 1478 2944 1107 2713 979 2399 
L 979 4358 
z
M 979 2060 
C 979 2310 1280 2540 1613 2540 
C 2112 2540 2432 2041 2432 1260 
C 2432 550 2125 140 1600 140 
C 1267 140 979 287 979 447 
L 979 2060 
z
" transform="scale(0.015625)"/>
       <path id="NimbusRomNo9L-Regu-6f" d="M 1600 2944 
C 768 2944 186 2329 186 1446 
C 186 582 781 -64 1587 -64 
C 2394 -64 3008 614 3008 1497 
C 3008 2336 2419 2944 1600 2944 
z
M 1517 2764 
C 2054 2764 2432 2150 2432 1273 
C 2432 550 2144 115 1664 115 
C 1414 115 1178 268 1043 524 
C 864 857 762 1305 762 1760 
C 762 2368 1062 2764 1517 2764 
z
" transform="scale(0.015625)"/>
       <path id="NimbusRomNo9L-Regu-63" d="M 2547 998 
C 2240 550 2010 396 1645 396 
C 1062 396 653 908 653 1644 
C 653 2303 1005 2758 1523 2758 
C 1754 2758 1837 2687 1901 2451 
L 1939 2310 
C 1990 2131 2106 2015 2240 2015 
C 2406 2015 2547 2137 2547 2284 
C 2547 2643 2099 2944 1562 2944 
C 1248 2944 922 2815 659 2585 
C 339 2303 160 1868 160 1363 
C 160 531 666 -64 1376 -64 
C 1664 -64 1920 38 2150 236 
C 2323 390 2445 563 2637 940 
L 2547 998 
z
" transform="scale(0.015625)"/>
      </defs>
      <use xlink:href="#NimbusRomNo9L-Regu-53" transform="scale(0.996264)"/>
      <use xlink:href="#NimbusRomNo9L-Regu-61" transform="translate(55.391677 0) scale(0.996264)"/>
      <use xlink:href="#NimbusRomNo9L-Regu-6c" transform="translate(99.625246 0) scale(0.996264)"/>
      <use xlink:href="#NimbusRomNo9L-Regu-69" transform="translate(127.320415 0) scale(0.996264)"/>
      <use xlink:href="#NimbusRomNo9L-Regu-64" transform="translate(155.015585 0) scale(0.996264)"/>
      <use xlink:href="#NimbusRomNo9L-Regu-61" transform="translate(204.828785 0) scale(0.996264)"/>
      <use xlink:href="#NimbusRomNo9L-Regu-62" transform="translate(273.968954 0) scale(0.996264)"/>
      <use xlink:href="#NimbusRomNo9L-Regu-6f" transform="translate(323.782155 0) scale(0.996264)"/>
      <use xlink:href="#NimbusRomNo9L-Regu-6d" transform="translate(373.595355 0) scale(0.996264)"/>
      <use xlink:href="#NimbusRomNo9L-Regu-62" transform="translate(451.103725 0) scale(0.996264)"/>
      <use xlink:href="#NimbusRomNo9L-Regu-61" transform="translate(500.916926 0) scale(0.996264)"/>
      <use xlink:href="#NimbusRomNo9L-Regu-63" transform="translate(570.057095 0) scale(0.996264)"/>
      <use xlink:href="#NimbusRomNo9L-Regu-61" transform="translate(614.290664 0) scale(0.996264)"/>
      <use xlink:href="#NimbusRomNo9L-Regu-6c" transform="translate(658.524232 0) scale(0.996264)"/>
      <use xlink:href="#NimbusRomNo9L-Regu-6f" transform="translate(686.219402 0) scale(0.996264)"/>
      <use xlink:href="#NimbusRomNo9L-Regu-72" transform="translate(736.032602 0) scale(0.996264)"/>
     </g>
    </g>
    <g id="line2d_170">
     <path d="M 214.963915 57.939805 
L 222.963915 57.939805 
L 230.963915 57.939805 
" style="fill: none; stroke-dasharray: 3.7,1.6; stroke-dashoffset: 0; stroke: #ff0000"/>
    </g>
    <g id="text_10">
     <!-- Tanque -->
     <g transform="translate(237.363915 60.739805) scale(0.08 -0.08)">
      <defs>
       <path id="NimbusRomNo9L-Regu-6e" d="M 102 2547 
C 141 2566 205 2572 275 2572 
C 454 2572 512 2476 512 2163 
L 512 576 
C 512 211 442 121 115 96 
L 115 0 
L 1472 0 
L 1472 96 
C 1146 121 1050 198 1050 428 
L 1050 2227 
C 1357 2515 1498 2591 1709 2591 
C 2022 2591 2176 2393 2176 1971 
L 2176 633 
C 2176 230 2093 121 1773 96 
L 1773 0 
L 3104 0 
L 3104 96 
C 2790 128 2714 204 2714 518 
L 2714 1984 
C 2714 2585 2432 2944 1958 2944 
C 1664 2944 1466 2835 1030 2425 
L 1030 2931 
L 986 2944 
C 672 2828 454 2758 102 2655 
L 102 2547 
z
" transform="scale(0.015625)"/>
       <path id="NimbusRomNo9L-Regu-71" d="M 2304 2713 
C 2010 2886 1818 2944 1568 2944 
C 768 2944 154 2228 154 1309 
C 154 505 576 -64 1178 -64 
C 1549 -64 1901 102 2182 409 
L 2182 -794 
C 2182 -1152 2067 -1248 1613 -1280 
L 1613 -1408 
L 3123 -1408 
L 3123 -1319 
C 2771 -1241 2720 -1189 2720 -916 
L 2720 2918 
L 2650 2918 
L 2304 2713 
z
M 2182 811 
C 2182 658 2157 575 2093 524 
C 1952 403 1741 326 1542 326 
C 1344 326 1171 390 1043 517 
C 838 703 704 1117 704 1539 
C 704 2292 1043 2764 1587 2764 
C 1984 2764 2182 2554 2182 2126 
L 2182 811 
z
" transform="scale(0.015625)"/>
      </defs>
      <use xlink:href="#NimbusRomNo9L-Regu-54" transform="scale(0.996264)"/>
      <use xlink:href="#NimbusRomNo9L-Regu-61" transform="translate(52.902187 0) scale(0.996264)"/>
      <use xlink:href="#NimbusRomNo9L-Regu-6e" transform="translate(97.135756 0) scale(0.996264)"/>
      <use xlink:href="#NimbusRomNo9L-Regu-71" transform="translate(146.948957 0) scale(0.996264)"/>
      <use xlink:href="#NimbusRomNo9L-Regu-75" transform="translate(196.762157 0) scale(0.996264)"/>
      <use xlink:href="#NimbusRomNo9L-Regu-65" transform="translate(246.575358 0) scale(0.996264)"/>
     </g>
    </g>
    <g id="line2d_171">
     <path d="M 214.963915 69.265268 
L 222.963915 69.265268 
L 230.963915 69.265268 
" style="fill: none; stroke-dasharray: 1,1.65; stroke-dashoffset: 0; stroke: #0000ff"/>
    </g>
    <g id="text_11">
     <!-- Suelo -->
     <g transform="translate(237.363915 72.065268) scale(0.08 -0.08)">
      <use xlink:href="#NimbusRomNo9L-Regu-53" transform="scale(0.996264)"/>
      <use xlink:href="#NimbusRomNo9L-Regu-75" transform="translate(55.391677 0) scale(0.996264)"/>
      <use xlink:href="#NimbusRomNo9L-Regu-65" transform="translate(105.204877 0) scale(0.996264)"/>
      <use xlink:href="#NimbusRomNo9L-Regu-6c" transform="translate(149.438446 0) scale(0.996264)"/>
      <use xlink:href="#NimbusRomNo9L-Regu-6f" transform="translate(177.133616 0) scale(0.996264)"/>
     </g>
    </g>
    <g id="line2d_172">
     <path d="M 214.963915 80.590732 
L 222.963915 80.590732 
L 230.963915 80.590732 
" style="fill: none; stroke-dasharray: 6.4,1.6,1,1.6; stroke-dashoffset: 0; stroke: #008000"/>
    </g>
    <g id="text_12">
     <!-- Habitación -->
     <g transform="translate(237.363915 83.390732) scale(0.08 -0.08)">
      <defs>
       <path id="NimbusRomNo9L-Regu-48" d="M 1338 2304 
L 1338 3532 
C 1338 3988 1408 4057 1901 4102 
L 1901 4224 
L 122 4224 
L 122 4102 
C 614 4057 685 3988 685 3532 
L 685 770 
C 685 230 621 153 122 121 
L 122 0 
L 1901 0 
L 1901 121 
C 1421 160 1338 243 1338 699 
L 1338 2022 
L 3277 2022 
L 3277 770 
C 3277 230 3213 153 2714 121 
L 2714 0 
L 4493 0 
L 4493 121 
C 4013 160 3930 243 3930 699 
L 3930 3532 
C 3930 3988 4000 4057 4493 4102 
L 4493 4224 
L 2714 4224 
L 2714 4102 
C 3206 4057 3277 3988 3277 3532 
L 3277 2304 
L 1338 2304 
z
" transform="scale(0.015625)"/>
       <path id="NimbusRomNo9L-Regu-b4" d="M 851 3257 
L 1837 3878 
C 1971 3961 2029 4044 2029 4147 
C 2029 4275 1946 4352 1805 4352 
C 1709 4352 1651 4319 1536 4204 
L 595 3257 
L 851 3257 
z
" transform="scale(0.015625)"/>
      </defs>
      <use xlink:href="#NimbusRomNo9L-Regu-48" transform="scale(0.996264)"/>
      <use xlink:href="#NimbusRomNo9L-Regu-61" transform="translate(71.929985 0) scale(0.996264)"/>
      <use xlink:href="#NimbusRomNo9L-Regu-62" transform="translate(116.163554 0) scale(0.996264)"/>
      <use xlink:href="#NimbusRomNo9L-Regu-69" transform="translate(165.976754 0) scale(0.996264)"/>
      <use xlink:href="#NimbusRomNo9L-Regu-74" transform="translate(193.671924 0) scale(0.996264)"/>
      <use xlink:href="#NimbusRomNo9L-Regu-61" transform="translate(221.367093 0) scale(0.996264)"/>
      <use xlink:href="#NimbusRomNo9L-Regu-63" transform="translate(265.600662 0) scale(0.996264)"/>
      <use xlink:href="#NimbusRomNo9L-Regu-69" transform="translate(309.834231 0) scale(0.996264)"/>
      <use xlink:href="#NimbusRomNo9L-Regu-b4" transform="translate(345.848393 0.498056) scale(0.996264)"/>
      <use xlink:href="#NimbusRomNo9L-Regu-6f" transform="translate(337.5294 0) scale(0.996264)"/>
      <use xlink:href="#NimbusRomNo9L-Regu-6e" transform="translate(387.342601 0) scale(0.996264)"/>
     </g>
    </g>
    <g id="line2d_173">
     <path d="M 214.963915 91.916195 
L 222.963915 91.916195 
L 230.963915 91.916195 
" style="fill: none; stroke-dasharray: 10,3; stroke-dashoffset: 5; stroke: #800080"/>
    </g>
    <g id="text_13">
     <!-- Ambiente -->
     <g transform="translate(237.363915 94.716195) scale(0.08 -0.08)">
      <defs>
       <path id="NimbusRomNo9L-Regu-41" d="M 4518 121 
C 4230 141 4166 205 3942 686 
L 2349 4288 
L 2221 4288 
L 890 1187 
C 480 238 403 134 96 121 
L 96 0 
L 1363 0 
L 1363 121 
C 1056 121 928 205 928 387 
C 928 465 947 556 979 641 
L 1274 1401 
L 2950 1401 
L 3213 777 
C 3290 602 3334 433 3334 342 
C 3334 179 3226 128 2886 121 
L 2886 0 
L 4518 0 
L 4518 121 
z
M 1382 1664 
L 2118 3392 
L 2861 1664 
L 1382 1664 
z
" transform="scale(0.015625)"/>
      </defs>
      <use xlink:href="#NimbusRomNo9L-Regu-41" transform="scale(0.996264)"/>
      <use xlink:href="#NimbusRomNo9L-Regu-6d" transform="translate(71.929985 0) scale(0.996264)"/>
      <use xlink:href="#NimbusRomNo9L-Regu-62" transform="translate(149.438355 0) scale(0.996264)"/>
      <use xlink:href="#NimbusRomNo9L-Regu-69" transform="translate(199.251555 0) scale(0.996264)"/>
      <use xlink:href="#NimbusRomNo9L-Regu-65" transform="translate(226.946725 0) scale(0.996264)"/>
      <use xlink:href="#NimbusRomNo9L-Regu-6e" transform="translate(271.180294 0) scale(0.996264)"/>
      <use xlink:href="#NimbusRomNo9L-Regu-74" transform="translate(320.993494 0) scale(0.996264)"/>
      <use xlink:href="#NimbusRomNo9L-Regu-65" transform="translate(348.688664 0) scale(0.996264)"/>
     </g>
    </g>
   </g>
  </g>
 </g>
 <defs>
  <clipPath id="p492e12150e">
   <rect x="26.199231" y="3.6" width="461.466" height="133.056"/>
  </clipPath>
 </defs>
</svg>
