<?xml version="1.0" encoding="UTF-8" standalone="no"?>
<!-- Created with Inkscape (http://www.inkscape.org/) -->

<svg
   width="210mm"
   height="297mm"
   viewBox="0 0 210 297"
   version="1.1"
   id="svg1"
   xmlns="http://www.w3.org/2000/svg"
   xmlns:svg="http://www.w3.org/2000/svg">
  <defs
     id="defs1">
    <marker
       style="overflow:visible"
       id="Triangle"
       refX="0"
       refY="0"
       orient="auto-start-reverse"
       markerWidth="1"
       markerHeight="1"
       viewBox="0 0 1 1"
       preserveAspectRatio="xMidYMid">
      <path
         transform="scale(0.5)"
         style="fill:context-stroke;fill-rule:evenodd;stroke:context-stroke;stroke-width:1pt"
         d="M 5.77,0 -2.88,5 V -5 Z"
         id="path135" />
    </marker>
    <marker
       style="overflow:visible"
       id="Dot"
       refX="0"
       refY="0"
       orient="auto"
       markerWidth="1"
       markerHeight="1"
       viewBox="0 0 1 1"
       preserveAspectRatio="xMidYMid">
      <path
         transform="scale(0.5)"
         style="fill:context-stroke;fill-rule:evenodd;stroke:none"
         d="M 5,0 C 5,2.76 2.76,5 0,5 -2.76,5 -5,2.76 -5,0 c 0,-2.76 2.3,-5 5,-5 2.76,0 5,2.24 5,5 z"
         id="path17" />
    </marker>
  </defs>
  <g
     id="layer1">
    <path
       style="fill:#000000;fill-opacity:0;stroke:#0000a0;stroke-width:0.2;stroke-linejoin:round;stroke-dasharray:none;stroke-opacity:1"
       d="m 173.35468,94.324584 c 0,0 -37.69099,53.047236 -122.991809,16.620326"
       id="path1" />
    <path
       style="fill:#000000;fill-opacity:0;stroke:#0000a0;stroke-width:0.2;stroke-linejoin:round;stroke-dasharray:none;stroke-opacity:1"
       d="m 167.48557,69.243599 c 0,0 -37.69099,53.047231 -122.991805,16.620327"
       id="path1-5" />
    <path
       style="fill:#000000;fill-opacity:0;stroke:#0000a0;stroke-width:0.2;stroke-linejoin:round;stroke-dasharray:none;stroke-opacity:1"
       d="m 160.59004,50.527694 c 0,0 -37.69099,53.047236 -122.991807,16.620327"
       id="path1-5-2" />
    <path
       style="fill:#000000;fill-opacity:0;stroke:#0000a0;stroke-width:0.2;stroke-linejoin:round;stroke-dasharray:none;stroke-opacity:1"
       d="m 155.51409,35.055873 c 0,0 -37.691,53.047233 -122.991814,16.620334"
       id="path1-5-2-7" />
    <path
       style="fill:#000000;fill-opacity:0;stroke:#0000a0;stroke-width:0.2;stroke-linejoin:round;stroke-dasharray:none;stroke-opacity:1"
       d="m 152.94315,24.223918 c 0,0 -37.691,53.047233 -122.991814,16.620334"
       id="path1-5-2-7-6" />
    <path
       style="fill:#000000;fill-opacity:0;stroke:#d60000;stroke-width:0.326568;stroke-linejoin:round;stroke-opacity:1"
       d="m 60.841818,131.86794 c 0,0 28.326014,-124.6152384 100.175542,-17.72533"
       id="path2" />
    <path
       style="fill:#000000;fill-opacity:0;stroke:#000000;stroke-width:0.3;stroke-linejoin:round"
       d="M 104.59646,71.012835 Z"
       id="path3" />
    <path
       style="fill:#000000;fill-opacity:0;stroke:#000000;stroke-width:0.3;stroke-linejoin:round"
       d="M 104.59646,71.012835 Z"
       id="path4" />
    <path
       style="fill:#000000;fill-opacity:0;stroke:#000000;stroke-width:0.3;stroke-linejoin:round"
       d="M 104.59646,71.012835 Z"
       id="path6" />
    <path
       style="fill:#000000;fill-opacity:0;stroke:#000000;stroke-width:0.3;stroke-linejoin:round;marker-start:url(#Dot)"
       d="m 103.43416,71.176649 -0.15527,0.02596 z"
       id="path7" />
    <path
       style="fill:#000000;fill-opacity:0;stroke:#000000;stroke-width:0.3;stroke-linejoin:round;marker-start:url(#Dot);marker-end:url(#Triangle)"
       d="m 103.27889,71.202607 18.6379,-2.471899"
       id="path8" />
    <path
       style="fill:#000000;fill-opacity:0;stroke:#000000;stroke-width:0.3;stroke-linejoin:round;marker-start:url(#Triangle)"
       d="m 84.64099,73.674506 18.6379,-2.471899"
       id="path8-9" />
    <g
       transform="translate(124.05349,66.304044)"
       id="g9">
      <g
         fill="#000000"
         fill-opacity="1"
         id="g2"
         transform="matrix(0.352778,0,0,0.352778,-0.548746,-0.64942)">
        <g
           id="use1"
           transform="translate(1.993,8.1689997)">
          <path
             d="M 0.609375,1.828125 C 0.515625,2.25 0.453125,2.359375 -0.125,2.359375 c -0.171875,0 -0.3125,0 -0.3125,0.28125 0,0.03125 0,0.140625 0.171875,0.140625 0.171875,0 0.375,-0.03125 0.5625,-0.03125 h 0.625 c 0.296875,0 1.03125,0.03125 1.328125,0.03125 0.09375,0 0.265625,0 0.265625,-0.25 0,-0.171875 -0.109375,-0.171875 -0.34375,-0.171875 C 1.5,2.359375 1.46875,2.265625 1.46875,2.15625 c 0,-0.171875 0.640625,-2.640625 0.71875,-2.96875 0.171875,0.390625 0.546875,0.953125 1.296875,0.953125 1.625,0 3.375,-2.109375 3.375,-4.21875 0,-1.3125 -0.75,-2.25 -1.828125,-2.25 -0.921875,0 -1.6875,0.890625 -1.84375,1.09375 -0.125,-0.71875 -0.671875,-1.09375 -1.25,-1.09375 -0.421875,0 -0.75,0.203125 -1.015625,0.75 C 0.65625,-5.0625 0.453125,-4.1875 0.453125,-4.125 c 0,0.046875 0.0625,0.125 0.15625,0.125 0.125,0 0.140625,-0.015625 0.21875,-0.34375 0.21875,-0.84375 0.484375,-1.6875 1.0625,-1.6875 0.328125,0 0.453125,0.21875 0.453125,0.65625 0,0.34375 -0.046875,0.484375 -0.109375,0.734375 z M 3.09375,-4.46875 C 3.203125,-4.875 3.59375,-5.296875 3.828125,-5.5 3.984375,-5.640625 4.453125,-6.03125 5,-6.03125 c 0.640625,0 0.921875,0.625 0.921875,1.375 0,0.6875 -0.40625,2.296875 -0.765625,3.046875 -0.34375,0.78125 -1.015625,1.46875 -1.671875,1.46875 -0.96875,0 -1.125,-1.234375 -1.125,-1.296875 0,-0.046875 0.015625,-0.15625 0.03125,-0.21875 z m 0,0"
             id="path9" />
        </g>
      </g>
    </g>
    <g
       transform="translate(76.172258,71.76985)"
       id="g10">
      <g
         fill="#000000"
         fill-opacity="1"
         id="g3"
         transform="matrix(0.352778,0,0,0.352778,-1.12201,-1.42271)">
        <g
           id="use2"
           transform="translate(1.993,10.361)">
          <path
             d="m 9.453125,-3.296875 c 0.25,0 0.5,0 0.5,-0.28125 0,-0.296875 -0.25,-0.296875 -0.5,-0.296875 H 1.6875 c -0.234375,0 -0.5,0 -0.5,0.296875 0,0.28125 0.265625,0.28125 0.5,0.28125 z m 0,0"
             id="path10" />
        </g>
      </g>
      <g
         fill="#000000"
         fill-opacity="1"
         id="g4"
         transform="matrix(0.352778,0,0,0.352778,-1.12201,-1.42271)">
        <g
           id="use3"
           transform="translate(13.151,10.361)">
          <path
             d="M 0.609375,1.828125 C 0.515625,2.25 0.453125,2.359375 -0.125,2.359375 c -0.171875,0 -0.3125,0 -0.3125,0.28125 0,0.03125 0,0.140625 0.171875,0.140625 0.171875,0 0.375,-0.03125 0.5625,-0.03125 h 0.625 c 0.296875,0 1.03125,0.03125 1.328125,0.03125 0.09375,0 0.265625,0 0.265625,-0.25 0,-0.171875 -0.109375,-0.171875 -0.34375,-0.171875 C 1.5,2.359375 1.46875,2.265625 1.46875,2.15625 c 0,-0.171875 0.640625,-2.640625 0.71875,-2.96875 0.171875,0.390625 0.546875,0.953125 1.296875,0.953125 1.625,0 3.375,-2.109375 3.375,-4.21875 0,-1.3125 -0.75,-2.25 -1.828125,-2.25 -0.921875,0 -1.6875,0.890625 -1.84375,1.09375 -0.125,-0.71875 -0.671875,-1.09375 -1.25,-1.09375 -0.421875,0 -0.75,0.203125 -1.015625,0.75 C 0.65625,-5.0625 0.453125,-4.1875 0.453125,-4.125 c 0,0.046875 0.0625,0.125 0.15625,0.125 0.125,0 0.140625,-0.015625 0.21875,-0.34375 0.21875,-0.84375 0.484375,-1.6875 1.0625,-1.6875 0.328125,0 0.453125,0.21875 0.453125,0.65625 0,0.34375 -0.046875,0.484375 -0.109375,0.734375 z M 3.09375,-4.46875 C 3.203125,-4.875 3.59375,-5.296875 3.828125,-5.5 3.984375,-5.640625 4.453125,-6.03125 5,-6.03125 c 0.640625,0 0.921875,0.625 0.921875,1.375 0,0.6875 -0.40625,2.296875 -0.765625,3.046875 -0.34375,0.78125 -1.015625,1.46875 -1.671875,1.46875 -0.96875,0 -1.125,-1.234375 -1.125,-1.296875 0,-0.046875 0.015625,-0.15625 0.03125,-0.21875 z m 0,0"
             id="path5" />
        </g>
      </g>
    </g>
    <g
       transform="translate(101.1957,65.520457)"
       id="g15">
      <g
         fill="#000000"
         fill-opacity="1"
         id="g12"
         transform="matrix(0.352778,0,0,0.352778,-0.846402,-0.701984)">
        <g
           id="g11"
           transform="translate(1.993,12.274)">
          <path
             d="m 6.796875,-5.859375 c -0.453125,0.09375 -0.625,0.4375 -0.625,0.703125 0,0.34375 0.265625,0.46875 0.46875,0.46875 0.4375,0 0.734375,-0.375 0.734375,-0.765625 0,-0.59375 -0.6875,-0.875 -1.296875,-0.875 -0.875,0 -1.359375,0.859375 -1.484375,1.140625 C 4.265625,-6.265625 3.375,-6.328125 3.109375,-6.328125 1.65625,-6.328125 0.875,-4.453125 0.875,-4.125 0.875,-4.078125 0.9375,-4 1.03125,-4 1.140625,-4 1.171875,-4.09375 1.203125,-4.140625 1.6875,-5.734375 2.65625,-6.03125 3.0625,-6.03125 c 0.65625,0 0.78125,0.59375 0.78125,0.9375 0,0.3125 -0.078125,0.640625 -0.265625,1.328125 l -0.484375,1.96875 c -0.203125,0.859375 -0.625,1.65625 -1.390625,1.65625 -0.0625,0 -0.421875,0 -0.734375,-0.1875 0.515625,-0.109375 0.640625,-0.53125 0.640625,-0.703125 0,-0.28125 -0.21875,-0.453125 -0.484375,-0.453125 -0.34375,0 -0.71875,0.296875 -0.71875,0.75 0,0.609375 0.671875,0.875 1.28125,0.875 0.6875,0 1.1875,-0.546875 1.484375,-1.125 0.234375,0.84375 0.9375,1.125 1.46875,1.125 1.46875,0 2.25,-1.875 2.25,-2.1875 0,-0.078125 -0.0625,-0.140625 -0.15625,-0.140625 -0.125,0 -0.140625,0.078125 -0.171875,0.1875 -0.390625,1.265625 -1.234375,1.859375 -1.875,1.859375 -0.5,0 -0.765625,-0.375 -0.765625,-0.96875 0,-0.3125 0.046875,-0.546875 0.28125,-1.484375 l 0.5,-1.953125 C 4.921875,-5.40625 5.40625,-6.03125 6.0625,-6.03125 c 0.03125,0 0.4375,0 0.734375,0.171875 z m 0,0"
             id="path11" />
        </g>
      </g>
      <g
         fill="#000000"
         fill-opacity="1"
         id="g14"
         transform="matrix(0.352778,0,0,0.352778,-0.846402,-0.701984)">
        <g
           id="g13"
           transform="translate(9.9750004,7.0679998)">
          <path
             d="m 3,-4.65625 c 0.015625,-0.15625 0.015625,-0.421875 -0.28125,-0.421875 -0.171875,0 -0.3125,0.15625 -0.28125,0.296875 v 0.140625 l 0.15625,1.6875 L 1.203125,-3.96875 C 1.09375,-4.03125 1.078125,-4.046875 1,-4.046875 c -0.15625,0 -0.296875,0.15625 -0.296875,0.3125 0,0.171875 0.109375,0.21875 0.21875,0.265625 l 1.546875,0.75 -1.5,0.71875 c -0.171875,0.09375 -0.265625,0.140625 -0.265625,0.296875 0,0.171875 0.140625,0.3125 0.296875,0.3125 0.078125,0 0.09375,0 0.375,-0.21875 l 1.21875,-0.875 -0.15625,1.828125 c 0,0.234375 0.1875,0.28125 0.28125,0.28125 0.125,0 0.296875,-0.078125 0.296875,-0.28125 L 2.84375,-2.484375 4.25,-1.46875 c 0.09375,0.046875 0.109375,0.078125 0.1875,0.078125 0.15625,0 0.296875,-0.15625 0.296875,-0.3125 0,-0.15625 -0.09375,-0.21875 -0.234375,-0.28125 C 3.84375,-2.3125 3.828125,-2.3125 2.96875,-2.71875 l 1.5,-0.734375 c 0.171875,-0.078125 0.265625,-0.125 0.265625,-0.28125 0,-0.171875 -0.140625,-0.3125 -0.296875,-0.3125 -0.078125,0 -0.09375,0 -0.375,0.203125 l -1.21875,0.890625 z m 0,0"
             id="path12" />
        </g>
      </g>
    </g>
    <g
       transform="translate(129.46189,82.256868)"
       id="g18"
       style="fill:#ff0000;fill-opacity:1">
      <g
         fill="#000000"
         fill-opacity="1"
         id="g17"
         transform="matrix(0.352778,0,0,0.352778,-0.978694,-0.706217)"
         style="fill:#ff0000;fill-opacity:1">
        <g
           id="g16"
           transform="translate(1.993,11.955)"
           style="fill:#ff0000;fill-opacity:1">
          <path
             d="m 4.03125,-9.59375 c 0.015625,-0.0625 0.046875,-0.140625 0.046875,-0.21875 0,-0.140625 -0.140625,-0.140625 -0.171875,-0.140625 -0.015625,0 -0.71875,0.0625 -0.796875,0.0625 C 2.875,-9.875 2.65625,-9.84375 2.390625,-9.828125 2.03125,-9.796875 1.9375,-9.78125 1.9375,-9.53125 c 0,0.15625 0.109375,0.15625 0.3125,0.15625 0.703125,0 0.71875,0.125 0.71875,0.265625 0,0.09375 -0.03125,0.203125 -0.046875,0.25 L 0.84375,-0.5625 c -0.0625,0.21875 -0.0625,0.25 -0.0625,0.328125 0,0.328125 0.25,0.375 0.390625,0.375 0.25,0 0.4375,-0.1875 0.5,-0.34375 l 0.65625,-2.59375 c 0.0625,-0.3125 0.15625,-0.609375 0.21875,-0.9375 0.171875,-0.59375 0.171875,-0.609375 0.4375,-1.03125 C 3.25,-5.171875 3.90625,-6.03125 5,-6.03125 c 0.578125,0 0.78125,0.421875 0.78125,1 0,0.796875 -0.5625,2.359375 -0.875,3.21875 -0.125,0.34375 -0.203125,0.53125 -0.203125,0.796875 0,0.640625 0.453125,1.15625 1.140625,1.15625 1.328125,0 1.828125,-2.109375 1.828125,-2.1875 0,-0.078125 -0.0625,-0.140625 -0.140625,-0.140625 -0.125,0 -0.140625,0.046875 -0.21875,0.296875 -0.328125,1.140625 -0.859375,1.75 -1.4375,1.75 -0.140625,0 -0.359375,-0.015625 -0.359375,-0.46875 0,-0.375 0.171875,-0.84375 0.21875,-1 0.265625,-0.6875 0.90625,-2.375 0.90625,-3.203125 0,-0.875 -0.5,-1.515625 -1.59375,-1.515625 -0.8125,0 -1.53125,0.390625 -2.125,1.140625 z m 0,0"
             id="path13"
             style="fill:#ff0000;fill-opacity:1" />
        </g>
      </g>
    </g>
    <path
       style="fill:#000000;fill-opacity:0;stroke:#000082;stroke-width:0.295;stroke-linejoin:round;marker-end:url(#Triangle)"
       d="M 164.85316,86.833289 139.81515,45.620347"
       id="path21" />
    <g
       transform="translate(156.39842,63.902071)"
       id="g24"
       style="fill:#000082;fill-opacity:1">
      <g
         fill="#000000"
         fill-opacity="1"
         id="g23"
         transform="matrix(0.352778,0,0,0.352778,-0.962157,-0.656608)"
         style="fill:#000082;fill-opacity:1">
        <g
           id="g22"
           transform="translate(1.993,11.955)"
           style="fill:#000082;fill-opacity:1">
          <path
             d="m 6.390625,-5.765625 c 0.296875,0 0.40625,0 0.40625,-0.265625 0,-0.15625 -0.109375,-0.15625 -0.375,-0.15625 h -1.15625 c 0.265625,-1.46875 0.46875,-2.484375 0.59375,-2.953125 0.078125,-0.34375 0.375,-0.671875 0.75,-0.671875 0.296875,0 0.609375,0.125 0.75,0.265625 C 6.796875,-9.5 6.625,-9.078125 6.625,-8.828125 c 0,0.28125 0.21875,0.453125 0.484375,0.453125 0.296875,0 0.71875,-0.25 0.71875,-0.796875 0,-0.59375 -0.59375,-0.921875 -1.234375,-0.921875 -0.609375,0 -1.21875,0.453125 -1.5,1.015625 -0.265625,0.5 -0.40625,1.015625 -0.734375,2.890625 H 3.40625 c -0.28125,0 -0.421875,0 -0.421875,0.265625 0,0.15625 0.078125,0.15625 0.375,0.15625 H 4.28125 C 4.015625,-4.4375 3.421875,-1.1875 3.09375,0.34375 c -0.234375,1.25 -0.453125,2.296875 -1.171875,2.296875 -0.046875,0 -0.453125,0 -0.71875,-0.28125 C 1.9375,2.3125 1.9375,1.671875 1.9375,1.65625 1.9375,1.375 1.71875,1.203125 1.453125,1.203125 c -0.296875,0 -0.71875,0.25 -0.71875,0.796875 0,0.609375 0.625,0.921875 1.1875,0.921875 1.46875,0 2.0625,-2.625 2.21875,-3.34375 0.265625,-1.09375 0.96875,-4.90625 1.03125,-5.34375 z m 0,0"
             id="path22"
             style="fill:#000082;fill-opacity:1" />
        </g>
      </g>
    </g>
    <path
       style="fill:none;fill-opacity:1;stroke:#000000;stroke-width:0.3;stroke-linejoin:round;stroke-dasharray:none;stroke-opacity:1;marker-end:url(#Triangle)"
       d="m 103.27889,71.202607 2.21957,15.985519"
       id="path24" />
    <g
       transform="translate(100.14607,89.737589)"
       id="g34">
      <g
         fill="#000000"
         fill-opacity="1"
         id="g7"
         transform="matrix(0.352778,0,0,0.352778,-0.940109,-0.706261)">
        <g
           id="use6"
           transform="translate(1.993,12.752)">
          <path
             d="M 11.1875,-9.484375 C 11.21875,-9.53125 11.26563,-9.625 11.26563,-9.6875 c 0,-0.09375 -0.01563,-0.109375 -0.34375,-0.109375 H 1.01563 c -0.328125,0 -0.34375,0.015625 -0.34375,0.109375 0,0.0625 0.046875,0.15625 0.078125,0.203125 l 4.828125,9.6875 c 0.10937,0.1875 0.14062,0.265625 0.39062,0.265625 0.234375,0 0.28125,-0.078125 0.390625,-0.265625 z m -8.734375,0.71875 h 7.875 L 6.390625,-0.875 Z m 0,0"
             id="path29" />
        </g>
      </g>
      <g
         fill="#000000"
         fill-opacity="1"
         id="g8"
         transform="matrix(0.352778,0,0,0.352778,-0.940109,-0.706261)">
        <g
           id="use7"
           transform="translate(13.948,12.752)">
          <path
             d="m 6.390625,-5.765625 c 0.296875,0 0.40625,0 0.40625,-0.265625 0,-0.15625 -0.109375,-0.15625 -0.375,-0.15625 h -1.15625 c 0.265625,-1.46875 0.46875,-2.484375 0.59375,-2.953125 0.078125,-0.34375 0.375,-0.671875 0.75,-0.671875 0.296875,0 0.609375,0.125 0.75,0.265625 C 6.796875,-9.5 6.625,-9.078125 6.625,-8.828125 c 0,0.28125 0.21875,0.453125 0.484375,0.453125 0.296875,0 0.71875,-0.25 0.71875,-0.796875 0,-0.59375 -0.59375,-0.921875 -1.234375,-0.921875 -0.609375,0 -1.21875,0.453125 -1.5,1.015625 -0.265625,0.5 -0.40625,1.015625 -0.734375,2.890625 H 3.40625 c -0.28125,0 -0.421875,0 -0.421875,0.265625 0,0.15625 0.078125,0.15625 0.375,0.15625 H 4.28125 C 4.015625,-4.4375 3.421875,-1.1875 3.09375,0.34375 c -0.234375,1.25 -0.453125,2.296875 -1.171875,2.296875 -0.046875,0 -0.453125,0 -0.71875,-0.28125 C 1.9375,2.3125 1.9375,1.671875 1.9375,1.65625 1.9375,1.375 1.71875,1.203125 1.453125,1.203125 c -0.296875,0 -0.71875,0.25 -0.71875,0.796875 0,0.609375 0.625,0.921875 1.1875,0.921875 1.46875,0 2.0625,-2.625 2.21875,-3.34375 0.265625,-1.09375 0.96875,-4.90625 1.03125,-5.34375 z m 0,0"
             id="path30" />
        </g>
      </g>
      <g
         fill="#000000"
         fill-opacity="1"
         id="g30"
         transform="matrix(0.352778,0,0,0.352778,-0.940109,-0.706261)">
        <g
           id="use8"
           transform="translate(22.403,12.752)">
          <path
             d="m 4.65625,3.484375 c 0,-0.046875 0,-0.078125 -0.234375,-0.3125 -1.4375,-1.453125 -2.234375,-3.8125 -2.234375,-6.75 0,-2.78125 0.671875,-5.171875 2.328125,-6.859375 0.140625,-0.140625 0.140625,-0.15625 0.140625,-0.203125 0,-0.09375 -0.0625,-0.109375 -0.125,-0.109375 -0.1875,0 -1.359375,1.03125 -2.0625,2.4375 -0.734375,1.4375 -1.0625,2.984375 -1.0625,4.734375 0,1.28125 0.203125,2.984375 0.953125,4.53125 0.84375,1.71875 2.015625,2.640625 2.171875,2.640625 0.0625,0 0.125,-0.015625 0.125,-0.109375 z m 0,0"
             id="path14" />
        </g>
      </g>
      <g
         fill="#000000"
         fill-opacity="1"
         id="g31"
         transform="matrix(0.352778,0,0,0.352778,-0.940109,-0.706261)">
        <g
           id="use9"
           transform="translate(27.865999,12.752)">
          <path
             d="m 6.796875,-5.859375 c -0.453125,0.09375 -0.625,0.4375 -0.625,0.703125 0,0.34375 0.265625,0.46875 0.46875,0.46875 0.4375,0 0.734375,-0.375 0.734375,-0.765625 0,-0.59375 -0.6875,-0.875 -1.296875,-0.875 -0.875,0 -1.359375,0.859375 -1.484375,1.140625 C 4.265625,-6.265625 3.375,-6.328125 3.109375,-6.328125 1.65625,-6.328125 0.875,-4.453125 0.875,-4.125 0.875,-4.078125 0.9375,-4 1.03125,-4 1.140625,-4 1.171875,-4.09375 1.203125,-4.140625 1.6875,-5.734375 2.65625,-6.03125 3.0625,-6.03125 c 0.65625,0 0.78125,0.59375 0.78125,0.9375 0,0.3125 -0.078125,0.640625 -0.265625,1.328125 l -0.484375,1.96875 c -0.203125,0.859375 -0.625,1.65625 -1.390625,1.65625 -0.0625,0 -0.421875,0 -0.734375,-0.1875 0.515625,-0.109375 0.640625,-0.53125 0.640625,-0.703125 0,-0.28125 -0.21875,-0.453125 -0.484375,-0.453125 -0.34375,0 -0.71875,0.296875 -0.71875,0.75 0,0.609375 0.671875,0.875 1.28125,0.875 0.6875,0 1.1875,-0.546875 1.484375,-1.125 0.234375,0.84375 0.9375,1.125 1.46875,1.125 1.46875,0 2.25,-1.875 2.25,-2.1875 0,-0.078125 -0.0625,-0.140625 -0.15625,-0.140625 -0.125,0 -0.140625,0.078125 -0.171875,0.1875 -0.390625,1.265625 -1.234375,1.859375 -1.875,1.859375 -0.5,0 -0.765625,-0.375 -0.765625,-0.96875 0,-0.3125 0.046875,-0.546875 0.28125,-1.484375 l 0.5,-1.953125 C 4.921875,-5.40625 5.40625,-6.03125 6.0625,-6.03125 c 0.03125,0 0.4375,0 0.734375,0.171875 z m 0,0"
             id="path15" />
        </g>
      </g>
      <g
         fill="#000000"
         fill-opacity="1"
         id="g32"
         transform="matrix(0.352778,0,0,0.352778,-0.940109,-0.706261)">
        <g
           id="use10"
           transform="translate(35.848999,7.546)">
          <path
             d="m 3,-4.65625 c 0.015625,-0.15625 0.015625,-0.421875 -0.28125,-0.421875 -0.171875,0 -0.3125,0.15625 -0.28125,0.296875 v 0.140625 l 0.15625,1.6875 L 1.203125,-3.96875 C 1.09375,-4.03125 1.078125,-4.046875 1,-4.046875 c -0.15625,0 -0.296875,0.15625 -0.296875,0.3125 0,0.171875 0.109375,0.21875 0.21875,0.265625 l 1.546875,0.75 -1.5,0.71875 c -0.171875,0.09375 -0.265625,0.140625 -0.265625,0.296875 0,0.171875 0.140625,0.3125 0.296875,0.3125 0.078125,0 0.09375,0 0.375,-0.21875 l 1.21875,-0.875 -0.15625,1.828125 c 0,0.234375 0.1875,0.28125 0.28125,0.28125 0.125,0 0.296875,-0.078125 0.296875,-0.28125 L 2.84375,-2.484375 4.25,-1.46875 c 0.09375,0.046875 0.109375,0.078125 0.1875,0.078125 0.15625,0 0.296875,-0.15625 0.296875,-0.3125 0,-0.15625 -0.09375,-0.21875 -0.234375,-0.28125 C 3.84375,-2.3125 3.828125,-2.3125 2.96875,-2.71875 l 1.5,-0.734375 c 0.171875,-0.078125 0.265625,-0.125 0.265625,-0.28125 0,-0.171875 -0.140625,-0.3125 -0.296875,-0.3125 -0.078125,0 -0.09375,0 -0.375,0.203125 l -1.21875,0.890625 z m 0,0"
             id="path16" />
        </g>
      </g>
      <g
         fill="#000000"
         fill-opacity="1"
         id="g33"
         transform="matrix(0.352778,0,0,0.352778,-0.940109,-0.706261)">
        <g
           id="use11"
           transform="translate(41.800999,12.752)">
          <path
             d="M 4.046875,-3.578125 C 4.046875,-4.65625 3.90625,-6.4375 3.09375,-8.109375 2.25,-9.828125 1.078125,-10.75 0.921875,-10.75 c -0.0625,0 -0.140625,0.01563 -0.140625,0.109375 0,0.04687 0,0.0625 0.25,0.3125 1.4375,1.453125 2.234375,3.8125 2.234375,6.75 0,2.78125 -0.671875,5.171875 -2.328125,6.859375 -0.15625,0.125 -0.15625,0.15625 -0.15625,0.203125 0,0.09375 0.078125,0.109375 0.140625,0.109375 0.1875,0 1.359375,-1.03125 2.0625,-2.4375 0.734375,-1.453125 1.0625,-3 1.0625,-4.734375 z m 0,0"
             id="path32" />
        </g>
      </g>
    </g>
  </g>
</svg>
